 <svg  version="1.0" xmlns="http://www.w3.org/2000/svg"  width="300.000000pt" height="300.000000pt" viewBox="0 0 300.000000 300.000000"  preserveAspectRatio="xMidYMid meet">  <g transform="translate(0.000000,300.000000) scale(0.100000,-0.100000)" fill="#0008ff" stroke="none"> <path d="M1178 2989 c-8 -5 -35 -13 -59 -19 -24 -6 -51 -12 -59 -14 -62 -15 -251 -100 -328 -147 -320 -195 -552 -479 -668 -822 -47 -136 -64 -223 -63 -310 l2 -72 7 72 c18 172 70 336 161 513 78 150 162 261 296 390 244 236 561 385 873 410 l95 8 -122 -1 c-66 0 -128 -4 -135 -8z"/> <path d="M1660 2990 c320 -27 662 -193 908 -440 235 -237 398 -586 425 -915 2 -22 4 -3 5 43 3 127 -64 358 -151 522 -157 296 -441 565 -721 682 -39 16 -84 35 -101 43 -90 40 -222 68 -340 70 l-120 3 95 -8z"/> <path d="M1595 2954 c-5 -2 -80 -5 -165 -7 -85 -3 -173 -10 -195 -15 -38 -10 -82 -20 -115 -26 -8 -2 -26 -8 -40 -13 -14 -6 -29 -8 -34 -6 -4 3 -11 1 -15 -6 -4 -6 -20 -12 -37 -13 -16 -1 -31 -5 -34 -8 -3 -3 -45 -25 -95 -50 -49 -25 -91 -48 -93 -52 -2 -5 -10 -8 -18 -8 -8 0 -14 -4 -14 -10 0 -5 -5 -10 -11 -10 -17 0 -127 -81 -182 -134 -26 -25 -54 -49 -61 -53 -11 -7 -70 -74 -141 -160 -5 -7 -15 -18 -21 -26 -6 -7 -17 -23 -23 -36 -7 -12 -21 -32 -31 -44 -11 -12 -19 -25 -20 -29 0 -4 -9 -22 -20 -40 -40 -69 -94 -184 -103 -223 -3 -11 -14 -51 -25 -90 -43 -150 -54 -235 -52 -397 0 -86 3 -167 6 -180 3 -12 9 -48 14 -78 4 -30 14 -73 20 -95 7 -22 14 -57 17 -77 3 -21 9 -35 14 -32 5 3 9 -3 9 -14 0 -25 65 -174 96 -219 13 -19 22 -38 19 -42 -2 -4 32 -54 75 -110 44 -57 77 -108 74 -113 -3 -4 -1 -7 3 -6 5 2 36 -23 68 -54 31 -32 61 -58 65 -58 4 0 14 -8 21 -17 23 -27 158 -131 190 -145 16 -7 29 -16 29 -20 0 -5 9 -8 20 -8 11 0 20 -4 20 -8 0 -5 18 -15 40 -22 22 -7 40 -18 40 -23 0 -6 3 -8 6 -4 3 3 36 -8 72 -25 37 -16 74 -31 82 -33 8 -2 35 -9 60 -16 55 -15 47 -13 149 -33 93 -18 382 -22 441 -7 19 5 53 12 75 15 22 3 57 9 78 14 20 6 37 8 37 7 0 -2 12 2 26 10 15 7 33 11 40 8 8 -3 14 0 14 7 0 7 7 10 17 6 10 -4 14 -4 10 0 -7 7 43 30 91 41 12 3 22 9 22 13 0 4 18 13 40 20 22 7 40 17 40 22 0 4 9 8 20 8 11 0 20 5 20 10 0 6 3 9 8 8 8 -3 58 28 86 54 11 10 23 18 26 18 17 0 168 145 274 262 48 53 166 226 166 243 0 3 16 37 35 76 19 40 35 79 35 86 0 8 4 11 10 8 5 -3 7 0 4 8 -3 8 -1 18 5 22 6 3 11 19 11 35 0 16 5 32 10 35 6 4 8 10 5 15 -2 4 2 30 10 56 8 27 15 63 15 80 0 17 3 34 8 38 9 10 11 40 11 229 0 87 -4 180 -9 205 -5 26 -12 58 -14 72 -9 45 -28 115 -36 135 -5 11 -12 31 -15 45 -10 37 -77 193 -90 210 -6 8 -17 29 -25 45 -14 29 -97 155 -109 165 -3 3 -31 34 -61 70 -30 36 -64 72 -75 80 -11 8 -29 24 -41 35 -61 60 -186 155 -204 155 -6 0 -10 5 -10 10 0 6 -4 10 -9 10 -5 0 -37 16 -70 35 -34 19 -65 35 -69 36 -4 1 -30 12 -59 25 -28 13 -58 24 -65 24 -8 0 -18 4 -23 9 -10 8 -143 39 -265 61 -36 6 -72 13 -80 14 -8 2 -19 1 -25 0z m190 -53 c189 -42 348 -108 500 -209 384 -253 622 -671 642 -1128 13 -269 -50 -529 -185 -769 -66 -116 -109 -172 -240 -304 -210 -212 -438 -334 -742 -398 -119 -25 -401 -25 -520 0 -231 49 -422 133 -599 265 -470 353 -677 967 -516 1533 152 535 603 933 1160 1025 115 19 383 11 500 -15z"/> <path d="M1295 2855 c-146 -24 -262 -61 -400 -130 -155 -77 -271 -162 -387 -284 -390 -409 -488 -1015 -247 -1520 74 -156 149 -262 274 -386 254 -253 556 -386 915 -402 225 -9 428 32 629 128 397 189 667 531 764 969 28 128 30 393 4 523 -111 549 -527 971 -1077 1092 -105 23 -360 28 -475 10z m468 -44 c538 -112 946 -525 1053 -1068 26 -131 24 -376 -5 -510 -111 -524 -508 -923 -1036 -1044 -131 -29 -405 -32 -530 -5 -538 117 -938 514 -1056 1047 -30 134 -33 409 -5 528 96 423 354 756 731 944 108 54 253 101 355 116 41 6 86 13 100 15 58 11 300 -4 393 -23z"/> <path d="M1735 2750 c9 -15 -22 -127 -56 -199 -18 -41 -26 -68 -20 -74 12 -12 45 52 62 117 12 49 34 60 63 31 14 -14 18 -10 41 40 15 30 24 59 20 65 -3 5 -24 10 -45 10 -21 0 -42 5 -45 10 -3 6 -11 10 -16 10 -6 0 -7 -4 -4 -10z m76 -33 c0 -4 -2 -21 -6 -37 -5 -25 -12 -30 -36 -30 -20 0 -29 5 -29 16 0 12 7 15 25 12 14 -3 25 -1 25 3 0 5 -9 9 -20 9 -22 0 -23 1 -14 24 6 16 54 18 55 3z"/> <path d="M1886 2693 c-13 -88 -13 -88 10 -85 11 1 30 -1 41 -5 l21 -8 -23 -72 c-34 -109 -34 -108 -47 -95 -23 23 -29 12 -11 -18 31 -54 46 -32 94 140 44 163 44 164 -11 168 -24 2 -50 8 -56 13 -8 7 -13 -4 -18 -38z m94 -2 c0 -3 -5 -22 -10 -42 -10 -35 -11 -36 -44 -25 -39 12 -39 40 0 30 15 -4 24 -2 24 5 0 6 -9 11 -20 11 -18 0 -27 19 -15 32 7 6 65 -3 65 -11z"/> <path d="M1010 2701 c0 -6 4 -11 9 -11 10 0 41 -72 41 -95 0 -8 -18 -24 -40 -35 -23 -12 -38 -25 -35 -31 4 -6 20 -2 39 11 19 11 36 20 40 20 3 0 6 -24 6 -54 0 -45 -6 -63 -34 -105 -38 -56 -35 -67 6 -23 37 39 58 85 58 126 l0 36 68 -50 c73 -53 82 -56 131 -39 45 16 38 26 -23 31 -38 3 -71 15 -120 43 -36 22 -65 43 -63 48 1 5 31 21 65 35 33 14 59 29 56 34 -10 15 -44 8 -85 -18 -23 -14 -42 -24 -44 -22 -2 2 -8 26 -12 53 -7 45 -11 50 -36 53 -15 2 -27 -1 -27 -7z"/> <path d="M1385 2424 c-216 -34 -391 -121 -539 -266 -133 -132 -217 -289 -258 -488 -24 -112 -20 -283 8 -390 72 -276 265 -508 518 -626 110 -50 216 -75 346 -81 432 -19 807 254 936 682 25 81 27 105 27 240 0 182 -17 257 -97 420 -121 246 -332 416 -606 489 -64 17 -273 29 -335 20z m353 -53 c309 -89 544 -325 633 -636 30 -103 36 -285 14 -400 -34 -181 -117 -337 -250 -471 -164 -165 -355 -249 -590 -261 -264 -13 -488 72 -675 257 -180 177 -270 392 -270 640 0 244 88 458 262 633 138 139 296 223 486 257 83 16 308 4 390 -19z"/> <path d="M1083 2152 c-48 -43 -103 -89 -121 -104 l-32 -27 35 -17 c61 -29 69 -55 76 -274 11 -323 42 -383 229 -440 125 -38 155 -52 197 -93 l33 -30 23 25 c34 36 85 60 204 97 57 18 115 43 132 57 69 57 100 187 101 413 0 127 3 150 21 189 15 31 32 48 56 58 l34 15 -33 26 c-18 15 -72 62 -120 105 l-88 78 -47 -31 c-81 -51 -164 -72 -283 -71 -119 0 -204 22 -282 71 l-47 30 -88 -77z m852 -47 c44 -38 81 -70 83 -71 1 -1 -14 -18 -33 -37 -21 -21 -33 -41 -29 -48 3 -6 1 -15 -6 -19 -7 -4 -14 -41 -17 -89 l-6 -81 -53 0 -54 0 0 65 c0 63 -1 65 -25 65 -18 0 -25 -5 -25 -20 0 -11 -4 -20 -10 -20 -5 0 -10 9 -10 20 0 15 -7 20 -25 20 -18 0 -25 -5 -25 -20 0 -11 -4 -20 -10 -20 -5 0 -10 9 -10 20 0 13 -7 20 -20 20 -13 0 -20 7 -20 20 0 19 7 20 149 20 89 0 152 4 156 10 4 7 -48 10 -149 10 -149 0 -156 1 -156 20 0 15 -7 20 -25 20 -20 0 -25 -5 -25 -25 0 -16 -6 -25 -15 -25 -9 0 -15 9 -15 25 0 20 -5 25 -25 25 -20 0 -25 -5 -25 -25 0 -14 -4 -25 -10 -25 -5 0 -10 11 -10 25 0 21 -5 25 -30 25 -25 0 -30 -4 -30 -25 0 -14 -4 -25 -10 -25 -5 0 -10 11 -10 25 0 20 -5 25 -25 25 -18 0 -25 -5 -25 -20 0 -19 -7 -20 -155 -20 -97 0 -155 -4 -155 -10 0 -6 58 -10 155 -10 148 0 155 -1 155 -20 0 -13 -7 -20 -20 -20 -13 0 -20 -7 -20 -20 0 -11 -4 -20 -10 -20 -5 0 -10 9 -10 20 0 15 -7 20 -25 20 -18 0 -25 -5 -25 -20 0 -11 -4 -20 -10 -20 -5 0 -10 9 -10 20 0 15 -7 20 -26 20 -25 0 -26 -1 -22 -67 l3 -68 -62 3 c-41 3 -63 0 -63 -7 0 -7 24 -11 60 -11 53 0 60 -2 60 -20 0 -17 7 -20 45 -20 l45 0 0 -44 0 -45 -102 -3 -103 -3 3 58 c2 34 -1 63 -8 72 -8 10 -8 18 1 33 13 21 4 148 -12 157 -5 4 -9 15 -9 26 0 11 -14 34 -30 51 -17 17 -30 31 -28 32 2 1 45 38 96 81 l93 79 65 -32 c167 -82 380 -81 529 2 48 27 63 31 75 22 8 -7 51 -43 95 -81z m-540 -155 c-5 -17 -2 -20 24 -20 24 0 31 4 31 20 0 11 5 20 10 20 6 0 10 -9 10 -20 0 -16 7 -20 31 -20 26 0 29 3 24 20 -5 14 -2 20 9 20 9 0 16 -9 16 -20 0 -15 7 -20 25 -20 18 0 25 5 25 20 0 11 7 20 15 20 9 0 15 -9 15 -25 l0 -25 -130 0 -130 0 0 25 c0 16 6 25 16 25 11 0 14 -6 9 -20z m25 -70 c0 -15 -7 -20 -25 -20 -18 0 -25 5 -25 20 0 15 7 20 25 20 18 0 25 -5 25 -20z m70 0 c0 -16 -7 -20 -30 -20 -23 0 -30 4 -30 20 0 16 7 20 30 20 23 0 30 -4 30 -20z m80 0 c0 -16 -7 -20 -30 -20 -23 0 -30 4 -30 20 0 16 7 20 30 20 23 0 30 -4 30 -20z m60 0 c0 -15 -7 -20 -25 -20 -18 0 -25 5 -25 20 0 15 7 20 25 20 18 0 25 -5 25 -20z m-410 -25 c0 -20 5 -25 25 -25 20 0 25 5 25 25 0 14 5 25 10 25 6 0 10 -11 10 -25 0 -20 5 -25 25 -25 20 0 25 5 25 25 0 14 3 25 8 25 10 0 32 -51 26 -61 -3 -5 -43 -9 -90 -9 l-84 0 0 35 c0 19 5 35 10 35 6 0 10 -11 10 -25z m440 0 c0 -20 5 -25 25 -25 20 0 25 5 25 25 0 14 5 25 10 25 6 0 10 -11 10 -25 0 -20 5 -25 25 -25 20 0 25 5 25 25 0 14 5 25 10 25 6 0 10 -16 10 -35 l0 -35 -90 0 c-83 0 -90 1 -90 20 0 11 5 20 10 20 6 0 10 7 10 15 0 8 5 15 10 15 6 0 10 -11 10 -25z m-210 -25 c0 -16 -7 -20 -30 -20 -23 0 -30 4 -30 20 0 16 7 20 30 20 23 0 30 -4 30 -20z m80 0 c0 -16 -7 -20 -30 -20 -23 0 -30 4 -30 20 0 16 7 20 30 20 23 0 30 -4 30 -20z m80 0 c0 -16 -7 -20 -35 -20 -28 0 -35 4 -35 20 0 16 7 20 35 20 28 0 35 -4 35 -20z m-390 -45 c0 -8 -4 -15 -10 -15 -5 0 -10 7 -10 15 0 8 5 15 10 15 6 0 10 -7 10 -15z m50 0 c0 -8 -9 -15 -20 -15 -11 0 -20 7 -20 15 0 8 9 15 20 15 11 0 20 -7 20 -15z m50 0 c0 -8 -7 -15 -15 -15 -8 0 -15 7 -15 15 0 8 7 15 15 15 8 0 15 -7 15 -15z m90 0 c0 -10 -11 -15 -35 -15 -24 0 -35 5 -35 15 0 10 11 15 35 15 24 0 35 -5 35 -15z m80 0 c0 -10 -10 -15 -30 -15 -20 0 -30 5 -30 15 0 10 10 15 30 15 20 0 30 -5 30 -15z m80 0 c0 -10 -10 -15 -33 -15 -23 0 -34 5 -34 15 0 10 11 15 34 15 23 0 33 -5 33 -15z m90 0 c0 -11 -11 -15 -40 -15 -29 0 -40 4 -40 15 0 11 11 15 40 15 29 0 40 -4 40 -15z m50 0 c0 -8 -9 -15 -20 -15 -11 0 -20 7 -20 15 0 8 9 15 20 15 11 0 20 -7 20 -15z m54 0 c4 -11 -1 -15 -19 -15 -16 0 -25 6 -25 15 0 8 9 15 19 15 10 0 21 -7 25 -15z m36 0 c0 -8 -4 -15 -10 -15 -5 0 -10 7 -10 15 0 8 5 15 10 15 6 0 10 -7 10 -15z m-570 -50 c0 -16 -6 -25 -15 -25 -9 0 -15 9 -15 25 0 16 6 25 15 25 9 0 15 -9 15 -25z m70 0 c0 -21 -5 -25 -30 -25 -22 0 -30 5 -30 18 0 24 4 27 34 30 22 1 26 -3 26 -23z m80 -2 c0 -19 -5 -23 -30 -23 -25 0 -30 4 -30 23 0 20 5 24 30 24 25 0 30 -4 30 -24z m35 7 c-20 -22 -31 -20 -22 5 4 8 14 15 23 15 16 0 16 -2 -1 -20z m75 5 c0 -8 -7 -15 -15 -15 -26 0 -18 20 13 29 1 1 2 -6 2 -14z m81 -21 c1 -15 -21 -16 -27 -1 -3 9 -13 13 -25 10 -18 -5 -26 7 -13 20 8 7 65 -17 65 -29z m29 21 c0 -13 -4 -14 -20 -5 -11 6 -20 13 -20 15 0 3 9 5 20 5 11 0 20 -7 20 -15z m80 -11 c0 -20 -5 -24 -30 -24 -24 0 -30 4 -30 23 0 18 6 22 30 23 25 1 30 -3 30 -22z m70 -1 c0 -19 -6 -23 -30 -23 -22 0 -30 5 -30 18 0 25 7 30 36 28 18 -1 24 -7 24 -23z m50 2 c0 -16 -6 -25 -15 -25 -9 0 -15 9 -15 25 0 16 6 25 15 25 9 0 15 -9 15 -25z m142 -52 c-2 -43 -7 -87 -12 -98 -11 -27 -35 -136 -33 -155 2 -31 -85 -89 -175 -116 -47 -15 -105 -35 -129 -45 l-43 -18 -6 26 c-5 20 -2 31 14 44 29 23 28 29 -6 29 -22 0 -32 7 -41 27 l-13 28 -14 -28 c-11 -21 -22 -27 -47 -27 l-32 -1 23 -18 c14 -13 22 -30 22 -50 0 -29 2 -31 21 -20 16 8 28 8 47 -1 25 -11 25 -11 6 -31 -20 -20 -20 -20 -80 16 -32 20 -95 47 -139 60 -112 35 -152 54 -170 81 l-15 24 379 0 c242 0 382 4 386 10 4 6 -31 10 -97 10 l-103 1 -37 34 c-21 20 -38 37 -38 40 0 3 27 5 60 5 l60 0 0 40 0 40 93 1 c50 1 95 1 100 0 4 0 7 4 7 9 0 6 -40 10 -100 10 l-100 0 0 45 0 45 45 0 c38 0 45 3 45 20 0 18 7 20 54 20 30 0 58 5 61 10 3 6 7 10 8 10 1 0 1 -35 -1 -77z m-492 42 c0 -8 -4 -15 -9 -15 -13 0 -22 16 -14 24 11 11 23 6 23 -9z m108 -41 c12 -14 22 -36 22 -50 0 -23 -2 -24 -80 -24 -79 0 -80 0 -80 26 0 79 84 108 138 48z m42 15 c0 -5 -7 -9 -15 -9 -15 0 -20 12 -9 23 8 8 24 -1 24 -14z m-175 1 c3 -5 -3 -10 -15 -10 -12 0 -18 5 -15 10 3 6 10 10 15 10 5 0 12 -4 15 -10z m-95 -10 c0 -5 -11 -10 -25 -10 -14 0 -25 5 -25 10 0 6 11 10 25 10 14 0 25 -4 25 -10z m45 0 c-3 -5 -13 -10 -21 -10 -8 0 -14 5 -14 10 0 6 9 10 21 10 11 0 17 -4 14 -10z m275 0 c0 -5 -7 -10 -15 -10 -8 0 -15 5 -15 10 0 6 7 10 15 10 8 0 15 -4 15 -10z m70 0 c0 -5 -13 -10 -30 -10 -16 0 -30 5 -30 10 0 6 14 10 30 10 17 0 30 -4 30 -10z m-310 -20 c0 -5 -7 -10 -15 -10 -8 0 -15 5 -15 10 0 6 7 10 15 10 8 0 15 -4 15 -10z m205 0 c3 -5 -1 -10 -9 -10 -9 0 -16 5 -16 10 0 6 4 10 9 10 6 0 13 -4 16 -10z m-315 -25 c0 -8 -4 -15 -10 -15 -5 0 -10 7 -10 15 0 8 5 15 10 15 6 0 10 -7 10 -15z m70 0 c0 -9 -9 -15 -25 -15 -16 0 -25 6 -25 15 0 9 9 15 25 15 16 0 25 -6 25 -15z m310 0 c0 -9 -9 -15 -25 -15 -16 0 -25 6 -25 15 0 9 9 15 25 15 16 0 25 -6 25 -15z m34 0 c-4 -8 -10 -15 -15 -15 -5 0 -9 7 -9 15 0 8 7 15 15 15 9 0 12 -6 9 -15z m-314 -15 c0 -5 -4 -10 -10 -10 -5 0 -10 5 -10 10 0 6 5 10 10 10 6 0 10 -4 10 -10z m220 0 c0 -5 -7 -10 -15 -10 -8 0 -15 5 -15 10 0 6 7 10 15 10 8 0 15 -4 15 -10z m-300 -30 c0 -13 -7 -20 -20 -20 -13 0 -20 7 -20 20 0 13 7 20 20 20 13 0 20 -7 20 -20z m50 0 c0 -11 -7 -20 -15 -20 -8 0 -15 9 -15 20 0 11 7 20 15 20 8 0 15 -9 15 -20z m290 0 c0 -11 -7 -20 -15 -20 -8 0 -15 9 -15 20 0 11 7 20 15 20 8 0 15 -9 15 -20z m60 0 c0 -15 -7 -20 -25 -20 -18 0 -25 5 -25 20 0 15 7 20 25 20 18 0 25 -5 25 -20z m-310 0 c0 -5 -7 -10 -15 -10 -8 0 -15 5 -15 10 0 6 7 10 15 10 8 0 15 -4 15 -10z m210 0 c0 -5 -7 -10 -15 -10 -8 0 -15 5 -15 10 0 6 7 10 15 10 8 0 15 -4 15 -10z m-350 -47 l0 -43 57 0 57 0 -39 -40 -39 -40 -98 0 c-62 0 -98 -4 -98 -11 0 -5 -5 -7 -12 -3 -9 6 -9 9 -1 11 9 3 8 14 -1 41 -23 66 -29 114 -14 124 7 4 52 7 101 6 l87 -2 0 -43z m310 1 l0 -34 -79 0 -79 0 -4 35 c-2 20 -3 37 -2 38 1 1 39 1 83 -1 l81 -4 0 -34z m-180 16 c0 -5 -4 -10 -10 -10 -5 0 -10 5 -10 10 0 6 5 10 10 10 6 0 10 -4 10 -10z m220 0 c0 -5 -7 -10 -15 -10 -8 0 -15 5 -15 10 0 6 7 10 15 10 8 0 15 -4 15 -10z m-320 -25 c0 -14 -4 -25 -10 -25 -5 0 -10 11 -10 25 0 14 5 25 10 25 6 0 10 -11 10 -25z m68 3 c-2 -15 -11 -24 -25 -26 -19 -3 -23 1 -23 22 0 21 5 26 26 26 21 0 25 -4 22 -22z m312 -3 c0 -20 -5 -25 -25 -25 -20 0 -25 5 -25 25 0 20 5 25 25 25 20 0 25 -5 25 -25z m30 -1 c0 -14 -4 -23 -10 -19 -5 3 -10 15 -10 26 0 10 5 19 10 19 6 0 10 -12 10 -26z m-310 -14 c0 -5 -4 -10 -10 -10 -5 0 -10 5 -10 10 0 6 5 10 10 10 6 0 10 -4 10 -10z m220 0 c0 -5 -7 -10 -15 -10 -8 0 -15 5 -15 10 0 6 7 10 15 10 8 0 15 -4 15 -10z m-5 -60 l39 -40 -159 0 -159 0 39 40 39 40 81 0 81 0 39 -40z m-75 -142 c0 -5 -5 -8 -11 -8 -6 0 -9 -8 -6 -18 3 -15 -1 -19 -24 -18 -19 1 -29 6 -29 17 0 8 -5 20 -12 27 -9 9 -7 12 10 12 12 0 22 4 22 9 0 5 11 4 25 -2 14 -7 25 -15 25 -19z"/> <path d="M1162 2115 c-8 -17 -20 -25 -37 -25 -30 0 -32 -11 -6 -34 15 -14 17 -24 11 -47 l-9 -29 30 16 c28 14 33 14 56 -2 l26 -16 -6 30 c-5 22 -1 34 13 47 28 25 25 35 -10 35 -23 0 -31 5 -36 25 -3 14 -9 25 -13 25 -4 0 -13 -11 -19 -25z m46 -62 c-5 -7 -7 -16 -4 -21 3 -5 -8 -9 -25 -9 -20 0 -28 4 -25 13 3 8 1 16 -4 19 -6 4 -10 11 -10 16 0 6 5 7 10 4 6 -3 13 1 16 9 5 14 9 13 29 -2 16 -12 20 -21 13 -29z"/> <path d="M1802 2115 c-8 -17 -20 -25 -37 -25 -30 0 -32 -11 -7 -33 13 -12 17 -26 14 -48 l-5 -31 27 17 c25 16 27 16 52 0 l27 -17 -6 30 c-5 22 -1 34 13 47 28 25 25 35 -10 35 -23 0 -31 5 -36 25 -3 14 -9 25 -13 25 -4 0 -13 -11 -19 -25z m38 -35 c12 -12 15 -22 9 -26 -6 -3 -8 -12 -6 -18 3 -8 -5 -13 -24 -13 -20 0 -28 4 -25 13 3 8 1 16 -4 19 -5 3 -2 14 8 25 22 23 19 23 42 0z"/> <path d="M939 1607 l-11 -24 -38 19 c-42 21 -100 17 -125 -9 -19 -19 -19 -59 0 -67 21 -8 21 -128 0 -146 -18 -15 -29 -71 -20 -100 4 -11 29 -48 56 -80 59 -71 69 -95 69 -161 0 -59 17 -71 62 -45 40 24 54 15 73 -46 18 -61 59 -128 79 -128 7 0 55 9 107 21 184 40 465 37 647 -8 48 -12 69 -13 87 -5 28 13 60 70 70 125 10 54 27 64 74 42 22 -9 44 -14 50 -11 6 4 11 32 11 62 0 64 7 81 65 149 23 28 47 60 53 72 18 33 14 77 -8 106 -25 32 -29 144 -5 153 21 8 19 48 -4 68 -29 27 -81 30 -123 8 -21 -11 -38 -17 -38 -13 0 4 -7 16 -15 27 -14 17 -15 11 -12 -66 2 -55 10 -96 20 -117 9 -18 17 -47 17 -66 l0 -34 -67 -6 c-57 -4 -71 -9 -90 -32 -30 -35 -29 -80 3 -126 26 -38 26 -85 -2 -96 -7 -2 -73 5 -146 18 -167 27 -374 29 -533 3 -160 -26 -176 -25 -188 9 -7 23 -5 34 17 66 33 47 33 91 2 127 -20 24 -32 28 -90 32 l-66 4 0 35 c0 19 8 48 17 66 16 30 31 197 18 197 -3 0 -10 -10 -16 -23z m-48 -26 c20 -16 21 -21 10 -35 -18 -21 -113 -22 -131 -1 -35 42 74 75 121 36z m1323 6 c10 -7 17 -22 14 -33 -3 -15 -13 -20 -56 -22 -53 -3 -82 8 -82 33 0 30 91 46 124 22z m-1293 -138 c-12 -30 -21 -72 -21 -95 0 -46 -25 -76 -78 -95 -41 -14 -62 1 -62 45 0 36 12 55 99 162 35 43 66 85 70 94 4 9 7 1 9 -21 2 -20 -6 -60 -17 -90z m1273 -48 c42 -34 58 -101 33 -135 -12 -16 -18 -17 -49 -7 -57 19 -78 45 -78 97 0 25 -7 59 -16 76 -9 16 -18 56 -21 87 l-6 56 60 -80 c33 -44 67 -86 77 -94z m-1333 92 c-5 -10 -21 -29 -35 -42 l-26 -24 0 41 c0 41 1 42 35 42 31 0 34 -2 26 -17z m1339 -25 l0 -42 -35 34 c-19 19 -35 38 -35 42 0 4 16 8 35 8 34 0 35 -1 35 -42z m-1141 -182 c28 -26 26 -70 -4 -110 -30 -40 -31 -61 -4 -106 17 -28 21 -52 23 -128 1 -90 0 -92 -17 -71 -9 12 -24 47 -33 78 -19 64 -30 81 -53 81 -12 0 -16 12 -18 55 -1 30 -13 80 -27 112 -15 37 -22 68 -19 87 6 28 6 28 69 24 43 -3 69 -10 83 -22z m1031 -15 c0 -21 -9 -60 -21 -85 -11 -26 -23 -71 -26 -100 -4 -40 -10 -55 -26 -62 -13 -6 -28 -32 -42 -77 -12 -37 -28 -74 -36 -82 -12 -12 -14 -1 -13 78 0 76 4 98 22 127 28 45 28 66 -3 106 -40 52 -29 107 25 127 8 3 39 6 68 6 l52 1 0 -39z m-1200 -24 c0 -12 9 -40 19 -60 25 -49 37 -152 21 -172 -23 -27 -40 -18 -40 23 0 59 -17 105 -55 149 -40 47 -42 53 -17 53 10 0 27 7 38 15 27 20 34 19 34 -8z m1295 -7 c22 0 19 -8 -19 -51 -37 -40 -56 -91 -56 -151 0 -41 -17 -50 -40 -23 -18 21 -7 116 19 166 12 22 21 51 21 65 0 24 1 24 30 9 16 -8 36 -15 45 -15z m-365 -174 l85 -17 3 -99 c1 -54 -1 -101 -5 -103 -5 -3 -48 5 -98 16 -136 30 -482 30 -610 0 -49 -11 -93 -19 -98 -16 -4 2 -6 49 -5 103 l2 99 65 11 c159 26 196 28 381 26 133 -2 222 -9 280 -20z"/> <path d="M1376 1043 c-15 -4 -16 -7 -5 -14 12 -8 11 -12 -3 -23 -22 -17 -23 -30 -2 -22 25 10 37 -4 17 -21 -17 -13 -17 -14 0 -9 9 3 17 1 17 -4 0 -5 -15 -14 -32 -20 -33 -10 -33 -10 7 -5 22 3 55 5 73 5 17 0 32 5 32 10 0 7 -13 8 -35 4 -23 -4 -35 -2 -35 5 0 6 7 11 15 11 8 0 15 4 15 10 0 5 -7 7 -15 4 -10 -4 -15 0 -15 11 0 12 5 15 20 10 11 -3 20 -2 20 4 0 16 -21 24 -33 12 -6 -6 -17 -11 -24 -11 -21 0 7 38 32 43 15 3 14 4 -5 4 -14 1 -34 -2 -44 -4z"/> <path d="M1575 1040 c3 -5 11 -10 16 -10 6 0 7 5 4 10 -3 6 -11 10 -16 10 -6 0 -7 -4 -4 -10z"/> <path d="M1617 1015 c-15 -32 -37 -40 -37 -14 0 6 5 7 10 4 6 -3 10 -1 10 4 0 12 -14 13 -50 1 -17 -5 -19 -8 -7 -9 23 -1 22 -10 -5 -38 -12 -13 -17 -23 -11 -23 5 0 18 9 28 20 22 24 31 19 15 -9 -7 -14 -7 -21 0 -21 5 0 10 4 10 9 0 5 7 17 16 26 15 14 17 14 30 -2 7 -10 14 -13 14 -7 0 5 -5 15 -12 22 -9 9 -9 15 -1 23 8 8 14 5 22 -10 7 -12 19 -21 29 -21 14 1 13 4 -5 19 -13 11 -27 29 -31 41 -7 19 -9 18 -25 -15z"/> <path d="M1217 1033 c-11 -11 -8 -23 6 -23 8 0 14 7 14 15 0 16 -9 19 -20 8z"/> <path d="M1173 1015 c0 -8 7 -15 16 -15 14 0 14 -2 1 -10 -10 -6 -11 -10 -2 -10 6 0 12 -9 12 -20 0 -17 7 -20 40 -20 23 0 40 5 40 11 0 7 -9 9 -21 6 -15 -4 -19 -2 -15 9 4 9 -2 14 -17 14 -16 0 -19 3 -8 9 11 7 9 10 -8 16 -11 3 -21 11 -21 16 0 5 -4 9 -8 9 -5 0 -9 -7 -9 -15z m57 -55 c0 -5 -4 -10 -10 -10 -5 0 -10 5 -10 10 0 6 5 10 10 10 6 0 10 -4 10 -10z"/> <path d="M1790 975 c0 -44 -3 -55 -16 -55 -13 0 -15 7 -10 30 4 21 2 30 -8 30 -8 0 -11 -10 -8 -30 4 -26 1 -30 -19 -30 -46 0 -12 -8 65 -15 56 -5 76 -4 72 4 -4 6 -20 11 -37 11 -40 0 -42 37 -1 43 26 4 26 4 5 12 -15 5 -23 15 -23 31 0 13 -4 24 -10 24 -5 0 -10 -25 -10 -55z"/> <path d="M1173 957 c4 -12 -1 -17 -21 -20 l-27 -4 28 -2 c20 -1 27 -6 27 -22 0 -17 4 -20 23 -15 12 3 27 6 33 6 6 0 11 7 11 15 0 10 -11 15 -33 15 -25 0 -32 4 -28 14 3 8 0 17 -7 22 -9 5 -10 2 -6 -9z m57 -41 c0 -2 -9 -6 -20 -9 -11 -3 -20 -1 -20 4 0 5 9 9 20 9 11 0 20 -2 20 -4z"/> <path d="M1622 934 c10 -10 20 -15 24 -12 3 4 -5 12 -18 18 -22 12 -22 12 -6 -6z"/> <path d="M2446 2355 c-9 -25 -139 -81 -208 -91 l-63 -9 63 -3 c57 -3 73 1 143 34 l80 38 63 -63 c35 -35 66 -59 69 -53 4 5 -23 35 -58 66 -38 33 -65 65 -65 77 0 23 -15 25 -24 4z"/> <path d="M486 2335 c-8 -8 -18 -24 -21 -35 -3 -11 -13 -20 -21 -20 -12 0 -13 -4 -3 -22 9 -16 9 -23 0 -26 -6 -2 -11 -8 -11 -13 0 -6 5 -7 11 -3 6 3 15 0 20 -7 6 -10 9 -8 9 9 0 26 15 29 24 5 4 -9 1 -20 -6 -25 -10 -6 -9 -8 4 -8 9 0 19 -8 21 -17 4 -15 5 -14 6 3 0 11 6 25 13 32 9 9 8 12 -5 12 -9 0 -17 4 -17 10 0 5 -11 12 -25 16 -30 7 -31 18 -6 50 22 28 38 16 21 -16 -6 -11 -7 -20 -1 -20 5 0 12 7 15 16 3 8 10 12 16 9 7 -4 7 -12 0 -25 -15 -28 -11 -38 5 -16 10 13 19 16 25 10 14 -14 -39 -124 -61 -124 -13 0 -16 6 -12 23 4 20 3 21 -10 5 -20 -26 -30 -22 -23 8 5 17 3 23 -4 19 -5 -3 -10 -13 -10 -21 0 -8 -4 -12 -10 -9 -5 3 -10 17 -10 31 0 15 -6 24 -15 24 -18 0 -19 -12 -3 -28 10 -10 10 -17 0 -32 -11 -18 -10 -20 9 -20 42 0 98 -22 92 -36 -3 -8 -11 -14 -19 -14 -8 0 -14 -3 -14 -6 0 -12 42 -64 51 -64 14 0 11 26 -6 40 -10 8 -11 17 -5 28 5 10 26 56 46 105 20 48 41 90 47 94 5 3 16 -2 24 -12 13 -18 13 -18 13 1 0 10 3 29 6 42 5 19 3 21 -12 16 -11 -4 -29 -18 -41 -32 l-21 -25 -29 41 c-32 46 -35 48 -57 27z"/> <path d="M2440 2290 c0 -6 7 -13 15 -16 8 -4 15 -10 15 -16 0 -5 -6 -5 -16 0 -12 7 -23 4 -38 -9 -12 -10 -30 -25 -41 -33 -20 -14 -19 -15 13 -48 17 -19 32 -39 32 -46 0 -19 16 -14 48 13 17 14 35 25 41 25 23 0 0 45 -32 61 -22 12 -22 12 -3 -9 16 -18 17 -24 6 -37 -27 -32 -44 -34 -74 -9 -15 14 -26 28 -22 31 3 3 14 -1 23 -9 46 -39 58 -33 16 7 -15 14 -24 25 -19 25 6 0 20 -10 33 -22 13 -12 26 -19 29 -15 3 3 -4 14 -15 24 -28 24 -27 28 11 30 25 2 40 -5 65 -29 22 -21 33 -27 33 -17 0 14 -100 109 -114 109 -3 0 -6 -5 -6 -10z"/> <path d="M665 2205 c-28 -63 -45 -71 -45 -20 0 35 -5 41 -27 27 -12 -8 -55 -113 -48 -120 10 -10 24 12 35 55 9 40 13 45 21 30 6 -9 7 -26 4 -37 -5 -16 -3 -19 11 -13 9 3 15 2 13 -3 -3 -5 -17 -35 -32 -68 -31 -68 -31 -67 -13 -60 8 3 24 32 36 65 12 32 26 59 30 59 4 0 18 -9 31 -19 21 -18 23 -22 11 -42 -13 -21 -13 -21 15 -14 15 3 30 8 32 11 10 10 -21 55 -49 69 -16 8 -30 19 -30 23 0 4 14 27 30 52 34 51 36 60 14 60 -9 0 -25 -22 -39 -55z"/> <path d="M2234 2192 c4 -6 25 -17 46 -23 34 -11 40 -16 40 -41 0 -34 -7 -35 -54 -3 -20 14 -40 25 -43 25 -14 0 34 -44 62 -55 25 -11 29 -18 30 -54 1 -28 8 -48 25 -66 34 -37 41 -31 20 18 -10 23 -20 53 -22 67 -3 22 1 25 35 28 43 4 48 22 12 46 -14 9 -25 23 -25 30 0 9 -16 15 -47 18 -27 3 -57 8 -67 13 -14 6 -17 5 -12 -3z m129 -83 c-30 -12 -33 -10 -33 23 l0 31 25 -23 c24 -22 24 -25 8 -31z"/> <path d="M366 1781 l-15 -40 -38 19 c-21 10 -39 17 -41 15 -2 -2 4 -17 12 -34 22 -42 21 -45 -26 -63 l-43 -15 43 -13 c47 -15 49 -18 26 -61 -20 -39 -14 -45 25 -25 43 23 46 21 61 -26 l13 -43 14 43 c16 45 24 49 63 27 39 -22 42 -18 20 25 -16 31 -18 41 -8 45 7 2 27 10 43 16 l30 11 -35 16 c-19 9 -37 18 -39 19 -3 2 3 20 13 39 9 20 16 38 14 39 -2 2 -20 -5 -41 -15 -36 -18 -37 -18 -47 0 -6 10 -10 25 -10 34 0 31 -19 24 -34 -13z m64 -62 c0 6 5 11 11 11 6 0 9 -9 6 -20 -3 -10 1 -24 9 -31 12 -9 12 -14 0 -31 -8 -11 -12 -27 -9 -36 5 -12 2 -14 -12 -8 -14 5 -24 0 -37 -16 -10 -13 -18 -17 -18 -10 0 7 -12 17 -26 22 -14 6 -28 19 -31 29 -3 11 -12 22 -21 26 -13 5 -12 9 7 26 12 11 19 24 16 29 -3 5 5 12 19 16 13 3 27 12 30 21 5 11 11 8 31 -13 14 -15 25 -22 25 -15z"/> <path d="M2601 1780 l-12 -40 -39 20 c-22 11 -41 20 -44 20 -2 0 4 -18 15 -40 10 -21 19 -41 19 -43 0 -2 -19 -10 -42 -16 l-42 -13 24 -14 c14 -7 33 -13 43 -14 21 0 21 -2 -3 -50 -11 -22 -18 -40 -15 -40 3 0 23 9 44 19 l38 20 13 -40 c7 -21 16 -39 20 -39 4 0 12 18 19 39 l11 39 38 -18 c20 -10 38 -17 40 -16 1 2 -5 19 -13 39 -8 20 -15 38 -15 40 0 2 19 10 42 17 l43 12 -40 16 c-22 8 -41 16 -43 18 -2 1 6 21 16 43 11 23 18 41 16 41 -3 0 -22 -9 -44 -20 l-39 -20 -12 40 c-7 22 -15 40 -19 40 -4 0 -12 -18 -19 -40z m40 -46 c7 -8 20 -13 30 -11 12 3 15 0 12 -12 -2 -10 3 -23 12 -31 14 -12 14 -14 -1 -31 -9 -10 -14 -27 -12 -37 4 -15 1 -18 -17 -14 -12 2 -29 -3 -37 -11 -13 -13 -16 -13 -27 5 -6 11 -17 18 -24 15 -6 -2 -18 10 -27 27 -13 24 -14 34 -5 46 7 8 15 23 18 33 4 10 11 16 16 13 5 -3 14 1 21 9 16 19 24 19 41 -1z"/> <path d="M355 1346 c-38 -6 -76 -15 -82 -19 -18 -11 -16 -82 2 -97 11 -9 40 -11 108 -5 93 7 94 7 89 31 -4 25 -6 25 -71 19 -36 -4 -73 -9 -83 -11 -16 -5 -35 12 -24 23 3 3 42 9 87 14 44 4 83 10 86 13 3 2 2 14 -2 25 -7 23 -11 24 -110 7z"/> <path d="M2546 1338 c-19 -26 -20 -51 -6 -79 15 -27 64 -24 104 6 35 26 71 33 63 13 -2 -7 -12 -13 -23 -13 -22 0 -32 -40 -12 -47 22 -9 57 10 69 36 9 18 8 31 -2 52 -19 40 -65 44 -107 10 -29 -26 -62 -34 -62 -17 0 5 9 11 20 14 12 3 20 14 20 26 0 29 -44 28 -64 -1z"/> <path d="M2506 1187 c-3 -12 -2 -25 2 -28 4 -4 48 -20 99 -37 90 -30 92 -30 99 -10 8 27 2 31 -103 66 -91 30 -91 30 -97 9z"/> <path d="M393 1167 c-69 -23 -93 -36 -93 -49 0 -9 4 -20 10 -23 12 -7 131 45 125 55 -2 3 2 7 10 7 25 0 17 -16 -17 -33 -18 -9 -49 -28 -68 -43 -19 -14 -36 -26 -38 -27 -1 -1 2 -13 7 -26 l10 -26 78 28 c128 46 121 42 112 68 l-8 22 -58 -25 c-31 -14 -65 -33 -75 -41 -9 -9 -23 -14 -30 -11 -9 4 -8 6 4 6 9 1 18 5 20 9 2 5 31 28 66 51 44 29 62 47 58 58 -3 8 -6 19 -6 24 0 12 -1 12 -107 -24z"/> <path d="M2467 1082 c-26 -28 -21 -69 9 -89 22 -14 30 -15 58 -4 54 23 86 25 86 7 0 -12 -6 -15 -24 -10 -18 4 -25 1 -29 -16 -11 -41 59 -41 82 1 33 59 -17 107 -83 80 -57 -23 -76 -25 -76 -6 0 12 5 15 16 11 17 -7 46 22 38 36 -10 15 -61 8 -77 -10z"/> <path d="M458 987 c-48 -23 -87 -45 -88 -48 0 -3 6 -12 13 -21 11 -14 22 -11 105 28 86 40 92 45 82 64 -6 11 -14 20 -18 19 -4 0 -46 -19 -94 -42z"/> <path d="M2400 956 c-9 -12 -2 -21 44 -52 31 -20 56 -38 56 -40 0 -1 -28 9 -61 22 -58 24 -62 24 -80 8 -10 -9 -16 -20 -13 -25 2 -4 41 -34 86 -65 76 -54 82 -56 94 -39 13 17 9 22 -44 57 -67 44 -63 47 18 14 l60 -25 14 21 c14 19 13 23 -7 38 -33 25 -145 100 -150 100 -3 0 -10 -6 -17 -14z"/> <path d="M523 879 c-65 -64 -72 -73 -61 -92 6 -12 12 -24 14 -26 5 -5 194 81 194 89 0 3 -6 14 -12 23 -12 16 -18 14 -71 -18 -32 -19 -63 -33 -68 -30 -5 3 -6 0 -3 -8 3 -8 1 -18 -4 -21 -17 -10 -21 22 -5 36 9 7 19 12 22 10 3 -1 27 13 54 33 41 31 46 38 37 55 -6 11 -14 20 -18 20 -4 0 -40 -32 -79 -71z"/> <path d="M2279 794 l-35 -35 75 -74 76 -74 39 38 c33 34 37 41 25 54 -12 14 -17 13 -37 -6 -21 -19 -24 -20 -39 -4 -16 15 -16 18 0 35 16 18 16 20 1 33 -14 11 -17 11 -25 -4 -6 -9 -16 -17 -24 -17 -25 0 -28 21 -6 44 16 17 18 25 9 34 -17 17 -19 16 -59 -24z"/> <path d="M620 745 l-74 -75 34 -35 c19 -19 40 -35 46 -35 24 0 26 21 5 44 -19 20 -19 23 -4 38 15 15 17 15 33 -5 15 -18 20 -19 34 -8 15 13 15 16 -4 36 -19 20 -19 23 -5 35 13 11 19 9 39 -9 21 -20 24 -20 36 -6 12 14 8 22 -26 56 l-39 39 -75 -75z"/> <path d="M2182 708 c-18 -18 -16 -23 37 -80 27 -29 57 -63 68 -76 18 -23 19 -23 36 -5 16 19 14 22 -50 94 -36 41 -69 75 -73 77 -3 1 -11 -3 -18 -10z"/> <path d="M737 624 c-64 -80 -66 -84 -46 -95 12 -6 24 -7 28 -2 4 4 17 21 29 37 18 23 23 25 28 12 4 -9 -5 -28 -20 -47 l-27 -32 21 -14 c12 -8 22 -13 24 -12 29 41 46 70 46 83 0 9 6 16 13 16 20 0 47 33 47 57 0 13 -16 34 -38 51 l-38 30 -67 -84z m93 7 c0 -22 -15 -35 -30 -26 -6 4 -5 13 3 25 15 25 27 25 27 1z"/> <path d="M2065 615 c-14 -13 -25 -30 -25 -38 0 -25 78 -135 100 -142 30 -9 69 13 77 43 7 29 -15 77 -57 126 -38 42 -62 45 -95 11z m79 -71 c23 -35 34 -60 28 -66 -13 -13 -82 81 -82 111 0 24 19 8 54 -45z"/> <path d="M923 578 c-20 -26 -22 -49 -8 -89 16 -44 13 -59 -11 -59 -17 0 -18 12 -3 27 8 8 5 14 -10 23 -28 14 -41 5 -41 -29 0 -49 57 -82 98 -55 25 16 26 28 10 128 -2 10 3 21 11 24 10 3 12 -1 8 -17 -8 -31 28 -49 43 -22 14 28 13 38 -10 61 -22 22 -72 27 -87 8z"/> <path d="M1953 554 c-18 -8 -33 -16 -33 -18 0 -2 7 -23 15 -46 21 -58 12 -62 -17 -7 l-23 45 -34 -14 c-19 -8 -31 -19 -28 -26 3 -7 20 -50 38 -95 31 -81 41 -91 66 -75 9 6 5 24 -18 72 -16 35 -37 69 -46 75 -11 9 -13 14 -4 19 7 4 18 -5 29 -24 56 -99 78 -129 90 -121 11 6 10 19 -3 69 -8 34 -18 69 -22 79 -4 12 -3 15 4 8 6 -5 21 -38 33 -72 13 -35 28 -63 34 -63 34 1 33 17 -5 110 -22 52 -41 95 -42 96 -1 0 -17 -5 -34 -12z m12 -34 c3 -5 1 -10 -4 -10 -6 0 -11 5 -11 10 0 6 2 10 4 10 3 0 8 -4 11 -10z"/> <path d="M1042 442 l-41 -97 22 -12 c18 -9 23 -9 29 5 3 9 22 54 41 99 l34 81 -22 10 c-22 10 -25 6 -63 -86z"/> <path d="M1150 480 c0 -11 7 -20 15 -20 11 0 14 -7 10 -22 -34 -156 -34 -146 -11 -152 11 -3 22 -3 24 -1 2 2 12 39 21 82 13 59 21 77 33 75 9 -1 18 6 21 17 4 17 -3 21 -45 30 -65 15 -68 14 -68 -9z"/> <path d="M1740 482 c-14 -2 -28 -9 -32 -16 -11 -16 -10 -206 1 -206 23 0 41 14 41 31 0 24 27 25 35 0 4 -13 12 -17 31 -13 18 3 23 9 19 21 -4 9 -20 54 -36 100 -16 46 -30 85 -31 85 -2 1 -14 0 -28 -2z m23 -135 c-11 -18 -23 8 -22 46 l1 42 13 -40 c7 -22 10 -43 8 -48z"/> <path d="M1296 370 c-15 -56 -26 -103 -24 -105 2 -1 13 -6 26 -9 18 -6 22 -3 22 13 0 14 6 21 20 21 13 0 20 -7 20 -20 0 -15 7 -20 26 -20 19 0 24 4 20 18 -2 9 -7 56 -11 105 -6 75 -9 87 -25 87 -10 0 -25 2 -33 5 -10 5 -20 -18 -41 -95z m59 0 c0 -27 -4 -40 -14 -40 -9 0 -11 7 -7 23 3 12 6 30 6 40 0 9 4 17 8 17 4 0 8 -18 7 -40z m-30 -50 c3 -5 1 -10 -4 -10 -6 0 -11 5 -11 10 0 6 2 10 4 10 3 0 8 -4 11 -10z"/> <path d="M1503 449 c-50 -18 -49 -71 1 -118 14 -14 26 -33 26 -43 0 -26 -19 -22 -25 5 -4 13 -14 23 -26 24 -14 1 -19 -5 -19 -26 0 -35 17 -51 55 -51 76 0 90 59 29 121 -30 31 -35 42 -26 51 10 10 14 8 18 -10 5 -15 14 -22 31 -22 21 0 23 3 17 23 -13 44 -42 61 -81 46z"/> <path d="M2991 1574 c0 -11 3 -14 6 -6 3 7 2 16 -1 19 -3 4 -6 -2 -5 -13z"/> <path d="M2987 1353 c-14 -247 -121 -528 -283 -743 -87 -115 -253 -277 -353 -344 -92 -62 -237 -138 -323 -170 -96 -36 -253 -74 -350 -85 l-83 -9 100 2 c55 2 111 6 125 10 14 4 35 9 46 12 157 32 444 170 555 266 15 13 50 43 79 68 127 108 278 302 355 455 38 76 77 178 105 275 12 41 25 84 29 95 8 21 16 275 8 275 -2 0 -7 -48 -10 -107z"/> <path d="M1 1328 c-1 -67 6 -113 28 -200 87 -336 289 -640 556 -840 28 -21 55 -42 62 -48 7 -5 15 -10 18 -10 3 0 24 -12 48 -27 40 -26 194 -105 213 -110 5 -2 47 -16 94 -33 46 -16 96 -32 110 -34 14 -3 43 -10 65 -15 22 -6 90 -10 150 -9 l110 1 -105 8 c-317 23 -639 172 -884 409 -266 257 -421 568 -455 915 l-8 80 -2 -87z"/> <path d="M1568 3 c7 -3 16 -2 19 1 4 3 -2 6 -13 5 -11 0 -14 -3 -6 -6z"/> </g> </svg> 