<svg fill="#000000" xmlns="http://www.w3.org/2000/svg"  viewBox="0 0 24 24" width="100px" height="100px"><path d="M6.217 13.408c.447.18 1.379.359 2.132.359.812 0 1.264-.247 1.3-.632.033-.35-.299-.398-1.216-.637-1.267-.342-2.075-.871-1.996-1.717.092-.982 1.286-1.724 3.118-1.724.893 0 1.759.069 2.208.231l-.154 1.238c-.291-.112-1.406-.266-2.16-.266-.765 0-1.16.265-1.188.555-.034.367.363.385 1.356.676 1.345.376 1.933.905 1.856 1.725C11.382 14.18 10.308 15 8.163 15 7.27 15 6.5 14.821 6.076 14.641L6.217 13.408 6.217 13.408zM18.821 9.366c4.884-1.017 5.305.811 5.154 2.428l-.284 2.992h-1.55l.259-2.729c.056-.601.405-1.776-1.281-1.732-.584.016-.873.104-.873.104s-.051.726-.112 1.263l-.294 3.095h-1.52l.302-3.05C18.622 11.736 18.821 9.366 18.821 9.366zM12.653 9.224c.349-.042.884-.084 1.621-.084 1.23 0 2.225.236 2.841.734.553.464.921 1.214.819 2.302-.094 1.012-.57 1.721-1.264 2.159-.635.413-1.434.59-2.637.59-.709 0-1.385-.042-1.9-.126L12.653 9.224 12.653 9.224zM13.669 13.69c.119.025.274.051.582.051 1.231 0 2.098-.668 2.185-1.607.127-1.358-.643-1.832-1.94-1.824-.168 0-.401 0-.525.025L13.669 13.69 13.669 13.69zM5.335 14.813C5.043 14.924 4.439 15 3.595 15c-2.427 0-3.737-1.254-3.583-2.913C.198 10.112 2.139 9 4.264 9c.823 0 1.308.073 1.762.195L5.88 10.526c-.302-.112-1.01-.215-1.583-.215-1.25 0-2.312.41-2.434 1.707-.109 1.16.637 1.714 2.044 1.714.49 0 1.212-.077 1.545-.189C5.452 13.544 5.335 14.813 5.335 14.813z"/></svg>