<?xml version="1.0" standalone="no"?>
<!DOCTYPE svg PUBLIC "-//W3C//DTD SVG 20010904//EN"
 "http://www.w3.org/TR/2001/REC-SVG-20010904/DTD/svg10.dtd">
<svg version="1.0" xmlns="http://www.w3.org/2000/svg"
 width="900.000000pt" height="900.000000pt" viewBox="0 0 900.000000 900.000000"
 preserveAspectRatio="xMidYMid meet">
<metadata>
Created by potrace 1.10, written by Peter Selinger 2001-2011
</metadata>
<g transform="translate(0.000000,900.000000) scale(0.100000,-0.100000)"
fill="#00b3ff" stroke="none">
<path d="M4160 8991 c0 -6 5 -13 11 -17 16 -9 577 -17 657 -9 44 5 62 11 62
21 0 12 -56 14 -365 14 -221 0 -365 -4 -365 -9z"/>
<path d="M3791 8930 c-32 -28 -37 -29 -58 -15 -31 21 -77 19 -98 -5 -14 -16
-26 -18 -61 -13 -32 4 -51 1 -76 -14 -23 -14 -45 -19 -74 -16 -29 3 -46 0 -57
-11 -8 -9 -31 -16 -49 -16 -18 0 -45 -7 -60 -14 -16 -8 -48 -18 -73 -22 -25
-3 -45 -10 -45 -15 0 -5 -18 -9 -40 -9 -24 0 -42 -6 -47 -15 -5 -8 -23 -16
-41 -18 -18 -2 -38 -9 -44 -15 -7 -7 -25 -12 -40 -12 -16 0 -31 -7 -34 -15 -4
-9 -19 -15 -38 -15 -20 0 -35 -7 -43 -19 -8 -13 -19 -17 -37 -14 -18 4 -28 0
-32 -11 -3 -9 -16 -16 -28 -16 -13 0 -33 -11 -45 -24 -13 -14 -30 -22 -37 -19
-8 3 -23 -2 -33 -11 -10 -9 -25 -14 -34 -10 -11 4 -19 0 -23 -10 -3 -9 -17
-16 -30 -16 -14 0 -27 -7 -30 -15 -4 -8 -17 -15 -30 -15 -14 0 -27 -7 -30 -15
-4 -8 -14 -15 -24 -15 -10 0 -25 -6 -32 -14 -8 -7 -24 -17 -36 -20 -12 -4 -22
-12 -22 -17 0 -5 -9 -9 -20 -9 -10 0 -23 -6 -27 -13 -9 -15 -69 -47 -89 -47
-7 0 -17 -6 -21 -12 -9 -15 -41 -36 -66 -45 -10 -3 -23 -16 -27 -29 -6 -15
-15 -22 -24 -18 -18 7 -55 -23 -67 -55 -8 -19 -12 -21 -24 -11 -12 10 -20 8
-41 -14 -15 -14 -33 -26 -41 -26 -7 0 -16 -7 -19 -15 -4 -8 -10 -15 -15 -15
-17 0 -109 -74 -109 -87 0 -7 -7 -13 -16 -13 -9 0 -43 -25 -77 -55 -33 -30
-64 -55 -69 -55 -4 0 -8 -7 -8 -15 0 -9 -21 -30 -47 -48 -62 -42 -400 -381
-409 -410 -7 -24 -52 -66 -71 -67 -7 0 -13 -6 -13 -12 0 -7 -14 -28 -30 -47
-17 -18 -30 -36 -30 -40 0 -3 -20 -28 -45 -56 -25 -27 -45 -55 -45 -61 0 -6
-13 -24 -30 -40 -16 -16 -30 -36 -30 -45 0 -9 -7 -19 -15 -23 -8 -3 -15 -12
-15 -20 0 -7 -7 -16 -15 -20 -8 -3 -15 -10 -15 -17 0 -6 -13 -28 -30 -49 -16
-21 -30 -45 -30 -54 0 -9 -5 -16 -10 -16 -6 0 -15 -11 -20 -25 -5 -14 -14 -25
-20 -25 -5 0 -10 -11 -10 -25 0 -14 -4 -25 -10 -25 -5 0 -10 -6 -10 -13 0 -8
-9 -22 -20 -32 -11 -10 -20 -26 -20 -37 0 -10 -4 -18 -10 -18 -5 0 -12 -11
-16 -25 -3 -13 -12 -29 -20 -36 -8 -6 -14 -19 -14 -29 0 -10 -7 -20 -15 -24
-8 -3 -15 -16 -15 -30 0 -13 -7 -26 -15 -30 -8 -3 -15 -16 -15 -30 0 -13 -7
-27 -16 -30 -10 -4 -14 -14 -11 -26 3 -10 -2 -25 -10 -31 -8 -7 -12 -20 -10
-30 3 -10 -5 -27 -19 -40 -13 -12 -24 -33 -24 -45 0 -13 -7 -27 -16 -32 -11
-6 -15 -17 -11 -31 3 -15 -1 -24 -14 -32 -13 -7 -18 -16 -14 -32 4 -16 -1 -29
-14 -41 -12 -11 -21 -32 -21 -47 0 -15 -4 -30 -9 -33 -4 -3 -11 -23 -15 -45
-3 -21 -12 -41 -20 -44 -8 -3 -13 -21 -13 -48 0 -28 -6 -45 -17 -51 -10 -5
-16 -22 -16 -42 0 -18 -7 -47 -16 -65 -9 -18 -14 -44 -11 -59 3 -17 -2 -35
-14 -51 -24 -30 -24 -67 -2 -80 16 -9 15 -13 -12 -35 -28 -22 -30 -29 -30 -88
0 -48 -5 -69 -18 -82 -25 -25 -23 -86 3 -93 23 -6 27 -23 5 -23 -8 0 -15 -8
-15 -18 0 -11 -9 -27 -20 -37 -24 -22 -28 -90 -6 -98 19 -7 26 1 26 30 0 13 7
40 16 61 8 20 17 63 19 95 2 32 8 64 13 70 6 7 13 39 17 72 4 33 11 65 15 70
9 13 22 61 25 100 3 34 20 111 30 137 5 12 1 20 -9 24 -22 9 -20 24 4 24 14 0
21 9 26 38 4 20 10 42 14 47 4 6 11 26 15 45 4 19 12 38 18 41 10 7 35 67 44
109 3 14 11 32 18 40 7 8 24 51 39 95 15 44 35 91 44 105 19 29 62 128 62 144
0 6 11 28 25 48 14 20 25 45 25 56 0 10 9 27 19 36 11 10 23 31 26 48 4 16 13
32 21 35 8 3 14 11 14 18 0 7 11 29 25 49 14 20 39 64 56 97 17 32 35 62 40
65 5 3 9 14 9 25 0 10 3 19 8 19 8 0 92 105 92 115 0 7 14 25 91 119 23 27 46
61 52 75 7 14 19 31 27 38 12 10 13 15 2 32 -7 12 -8 21 -3 21 5 0 12 -6 15
-12 5 -10 8 -9 13 2 3 8 37 46 75 85 303 309 389 395 396 395 13 0 102 95 102
108 0 7 7 12 15 12 8 0 15 5 15 10 0 6 6 10 13 10 7 0 42 27 77 60 36 33 70
60 76 60 5 0 27 15 47 34 20 18 51 39 69 47 17 7 51 28 75 46 24 18 46 33 49
33 4 0 24 16 46 35 21 20 50 41 64 47 13 6 24 19 24 28 0 13 6 16 24 13 17 -4
38 5 69 29 24 18 102 62 173 97 185 91 184 91 204 91 9 0 24 7 31 16 13 15 91
56 114 59 6 1 36 14 68 28 32 15 60 27 63 27 3 0 20 6 37 14 49 21 254 86 272
86 8 0 18 6 20 13 3 6 26 13 51 15 25 1 58 9 74 17 15 8 47 17 71 20 45 6 98
18 156 36 17 5 67 14 112 19 44 5 94 16 110 25 17 8 41 15 55 15 19 0 23 4 19
20 -8 31 -60 26 -102 -10z"/>
<path d="M5060 8940 c0 -15 7 -20 29 -20 16 0 50 -9 76 -21 26 -12 68 -22 94
-24 68 -5 170 -23 220 -40 25 -8 55 -15 68 -15 13 0 35 -7 48 -16 13 -9 37
-17 52 -18 29 -2 103 -22 138 -37 11 -5 49 -18 85 -30 36 -11 79 -27 97 -35
17 -8 37 -14 45 -14 24 0 111 -34 160 -63 26 -15 52 -27 58 -27 7 0 33 -11 59
-24 25 -13 64 -29 86 -36 52 -16 128 -49 180 -78 22 -12 54 -29 70 -38 17 -8
42 -22 56 -32 14 -9 44 -29 67 -45 23 -15 46 -26 51 -25 5 2 38 -21 74 -49 37
-29 70 -53 75 -53 5 0 16 -7 23 -16 7 -9 38 -32 69 -51 30 -20 74 -53 98 -75
23 -21 54 -44 70 -51 15 -6 38 -23 52 -37 31 -30 157 -141 179 -156 9 -7 54
-49 100 -93 51 -50 89 -80 98 -77 8 3 11 1 8 -4 -6 -10 4 -23 90 -114 22 -23
66 -72 98 -109 32 -37 65 -67 73 -67 9 0 12 -5 8 -11 -3 -6 14 -32 38 -57 24
-26 59 -71 78 -99 19 -29 38 -53 43 -53 4 0 12 -10 17 -22 29 -65 143 -239
167 -255 12 -8 23 -22 23 -29 0 -8 7 -14 16 -14 9 0 14 -6 11 -12 -6 -19 49
-128 74 -148 4 -3 19 -29 34 -58 15 -29 31 -55 36 -58 5 -3 9 -12 9 -20 0 -9
15 -48 34 -87 19 -40 42 -88 50 -107 21 -46 41 -79 55 -93 6 -6 11 -23 11 -38
0 -15 7 -32 15 -39 8 -7 15 -17 15 -23 0 -8 35 -102 75 -202 4 -11 7 -27 6
-37 -1 -9 3 -19 9 -23 5 -3 10 -15 10 -26 0 -11 7 -19 16 -19 12 0 14 -4 7
-12 -16 -21 0 -63 25 -66 19 -3 22 1 22 34 0 21 -7 45 -15 54 -8 9 -16 31 -18
49 -2 17 -9 37 -15 43 -7 7 -12 27 -12 45 0 21 -6 36 -15 39 -9 4 -15 19 -15
40 0 22 -6 37 -15 40 -9 4 -15 19 -15 38 0 20 -7 35 -19 43 -13 8 -18 19 -14
34 4 14 0 25 -11 31 -9 5 -16 18 -16 30 0 11 -11 31 -25 44 -15 14 -22 29 -19
39 4 9 -1 24 -10 34 -9 10 -14 25 -10 34 4 11 0 19 -10 23 -9 3 -16 17 -16 30
0 14 -7 27 -15 30 -8 4 -15 17 -15 30 0 14 -7 27 -15 30 -8 4 -15 14 -15 24 0
10 -7 23 -15 30 -8 7 -15 21 -15 31 0 10 -6 22 -12 26 -7 4 -24 29 -38 56 -13
26 -28 47 -32 47 -5 0 -8 11 -8 25 0 13 -6 28 -12 32 -14 9 -33 37 -47 69 -5
12 -17 24 -25 27 -9 4 -16 12 -16 19 0 18 -48 68 -65 68 -18 0 -20 21 -3 38 9
9 9 12 0 12 -7 0 -12 6 -12 13 0 6 -16 27 -35 44 -19 18 -35 39 -35 46 0 8
-20 36 -45 63 -24 27 -45 54 -45 59 0 6 -18 29 -40 53 -22 24 -40 47 -40 52 0
6 -9 10 -20 10 -12 0 -30 16 -46 43 -49 77 -270 317 -292 317 -7 0 -12 5 -12
10 0 6 -5 10 -10 10 -6 0 -27 18 -47 41 -20 22 -54 49 -75 60 -21 11 -38 26
-38 35 0 17 -38 53 -55 54 -6 0 -19 11 -29 25 -10 14 -24 25 -30 25 -6 0 -36
23 -66 50 -30 28 -60 50 -68 50 -7 0 -15 7 -18 15 -4 8 -12 15 -19 15 -6 0
-24 11 -40 25 -21 20 -30 23 -41 14 -11 -9 -15 -7 -20 7 -11 30 -46 64 -65 64
-10 0 -35 16 -56 35 -21 19 -42 35 -47 35 -5 0 -15 8 -22 18 -10 14 -15 15
-25 5 -19 -19 -29 -16 -29 7 0 12 -10 25 -22 30 -22 9 -35 17 -75 40 -10 6
-26 13 -35 16 -9 3 -19 12 -22 20 -3 8 -16 14 -30 14 -13 0 -26 7 -30 15 -3 8
-16 15 -30 15 -13 0 -26 7 -30 15 -3 8 -16 15 -30 15 -13 0 -27 7 -30 16 -4
10 -14 14 -26 11 -10 -3 -24 1 -31 9 -6 8 -21 11 -34 8 -16 -4 -26 1 -39 20
-11 18 -25 26 -46 26 -17 0 -30 4 -30 9 0 5 -12 12 -27 16 -16 3 -36 14 -45
22 -10 9 -28 13 -42 11 -19 -4 -27 0 -32 14 -4 15 -12 19 -31 15 -13 -2 -30 1
-36 8 -7 6 -29 15 -49 19 -20 3 -41 13 -48 21 -6 7 -18 11 -25 8 -8 -2 -28 2
-46 11 -17 8 -47 18 -68 22 -20 4 -42 11 -49 17 -6 5 -32 10 -56 11 -26 2 -51
9 -61 20 -13 12 -30 17 -59 15 -23 -2 -58 5 -80 14 -44 19 -69 21 -95 7 -14
-7 -23 -4 -39 15 -25 28 -63 32 -86 10 -13 -14 -19 -13 -53 2 -21 10 -44 24
-51 31 -7 6 -31 12 -53 12 -32 0 -39 -3 -39 -20z"/>
<path d="M3957 8943 c-17 -16 -3 -23 47 -23 60 0 89 7 80 21 -6 10 -117 12
-127 2z"/>
<path d="M4945 8940 c-4 -6 8 -10 30 -10 22 0 34 4 30 10 -3 6 -17 10 -30 10
-13 0 -27 -4 -30 -10z"/>
<path d="M3863 8788 c-4 -7 -15 -31 -24 -53 -14 -33 -22 -41 -49 -45 -30 -4
-57 -30 -32 -30 6 0 15 -15 21 -32 10 -27 9 -38 -6 -65 -21 -40 -37 -42 -60
-7 -20 31 -90 84 -110 84 -29 0 -24 -30 11 -60 19 -17 43 -49 52 -71 10 -21
21 -39 25 -39 20 0 62 22 87 45 32 30 48 31 62 5 6 -10 16 -17 24 -14 7 3 24
-4 37 -16 23 -19 23 -21 7 -34 -10 -7 -18 -17 -18 -21 0 -4 -8 -14 -17 -21
-23 -16 -11 -28 19 -21 27 7 80 54 97 85 12 23 7 30 -35 41 l-25 6 40 45 c57
63 70 142 24 148 -13 2 -33 -4 -45 -12 -12 -9 -33 -16 -46 -16 -20 0 -22 4
-16 23 3 12 13 29 20 38 12 14 12 18 -4 32 -22 20 -28 21 -39 5z m65 -148 c17
0 15 -26 -4 -56 -15 -23 -18 -23 -34 -9 -9 8 -25 13 -34 9 -11 -4 -16 -1 -16
12 0 27 31 56 55 50 11 -3 26 -6 33 -6z"/>
<path d="M4917 8787 c-2 -7 1 -23 8 -37 6 -14 18 -38 26 -55 8 -17 24 -31 36
-33 53 -8 71 75 23 108 -33 23 -87 33 -93 17z"/>
<path d="M5097 8754 c-4 -4 -7 -17 -7 -29 0 -12 -13 -34 -30 -50 -16 -16 -30
-37 -30 -47 0 -10 -5 -18 -10 -18 -6 0 -15 -11 -20 -25 -5 -14 -14 -25 -20
-25 -5 0 -10 -6 -10 -13 0 -26 -102 -157 -122 -157 -24 0 -34 -25 -22 -59 6
-16 6 -42 0 -68 -8 -36 -6 -46 9 -63 21 -23 62 -26 89 -5 11 8 30 15 43 15 31
0 67 23 125 79 36 34 51 42 59 34 9 -9 9 -22 1 -50 -45 -157 -45 -157 -6 -167
47 -12 62 7 69 89 8 81 27 122 45 95 5 -8 10 -23 10 -33 0 -21 44 -100 66
-118 12 -10 20 -8 42 9 15 12 37 27 50 32 38 16 23 42 -33 56 -16 4 -51 30
-78 57 -43 44 -47 51 -33 65 13 13 22 13 78 -2 35 -9 70 -17 78 -19 25 -4 23
32 -5 65 -17 20 -24 36 -19 47 13 28 8 78 -9 96 -9 9 -17 23 -17 32 0 13 10
15 59 10 51 -4 60 -3 64 13 3 12 -8 31 -32 54 -37 36 -39 37 -127 39 -49 2
-99 9 -111 15 -12 7 -42 12 -66 12 -34 0 -48 5 -58 21 -8 11 -17 17 -22 13z
m131 -76 c6 -6 44 -14 84 -17 65 -5 73 -8 76 -28 5 -33 -30 -48 -67 -28 -59
30 -66 15 -21 -47 17 -22 30 -51 30 -64 0 -12 7 -29 15 -38 8 -8 15 -26 15
-39 0 -20 -6 -26 -34 -31 -56 -11 -68 -1 -64 57 3 47 1 52 -23 61 -42 15 -59
2 -59 -44 l0 -40 -45 0 c-42 0 -45 -2 -45 -27 0 -20 -17 -44 -62 -90 -34 -35
-68 -63 -75 -63 -7 0 -17 10 -24 21 -13 26 -2 78 43 189 62 155 59 150 101
150 35 0 39 3 57 45 17 40 23 45 53 45 18 0 38 -5 45 -12z"/>
<path d="M5147 8653 c-4 -3 -7 -15 -7 -25 0 -10 -4 -18 -10 -18 -5 0 -10 -6
-10 -13 0 -7 -20 -33 -45 -57 -50 -49 -54 -60 -26 -60 22 0 201 117 201 131 0
5 -11 14 -24 19 -13 5 -27 14 -31 19 -7 12 -38 15 -48 4z"/>
<path d="M5000 8436 c0 -18 30 -29 54 -20 26 10 13 29 -22 32 -23 2 -32 -1
-32 -12z"/>
<path d="M4853 8600 c6 -75 45 -110 82 -74 27 27 15 75 -24 101 -53 36 -63 31
-58 -27z"/>
<path d="M3840 8469 c-6 -10 -19 -19 -29 -19 -10 0 -24 -7 -31 -15 -7 -8 -17
-15 -22 -15 -6 0 -30 -13 -55 -30 -24 -16 -48 -30 -54 -30 -14 0 -11 -30 4
-31 28 -3 49 4 104 33 50 27 133 96 133 111 0 2 -9 7 -20 10 -13 3 -24 -1 -30
-14z"/>
<path d="M3583 8464 c-3 -9 -2 -28 3 -43 13 -35 57 -37 62 -3 6 43 -51 83 -65
46z"/>
<path d="M6398 8348 c-7 -13 -26 -49 -41 -80 -30 -63 -50 -72 -80 -38 -21 25
-47 26 -47 2 0 -11 14 -27 35 -38 40 -21 42 -31 17 -65 -10 -13 -29 -45 -42
-71 -24 -46 -51 -61 -65 -38 -3 6 -19 10 -34 10 -27 0 -29 -3 -36 -56 -4 -31
-4 -58 -2 -61 5 -4 154 12 215 23 30 6 28 22 -4 30 -14 4 -24 11 -22 18 8 31
75 137 90 141 17 6 88 -33 88 -48 0 -17 -74 -128 -91 -137 -9 -5 -19 -21 -23
-34 -9 -38 -104 -80 -183 -81 -66 0 -79 -6 -70 -29 8 -20 119 -30 182 -16 79
18 162 98 227 220 50 94 109 178 128 183 33 9 25 26 -34 75 -24 19 -43 14 -54
-15 -24 -70 -57 -133 -68 -133 -6 0 -15 12 -18 26 -6 24 -11 26 -41 21 -19 -3
-35 -4 -35 -3 0 16 41 76 71 106 22 21 39 42 39 46 0 11 -65 64 -78 64 -5 0
-16 -10 -24 -22z"/>
<path d="M3834 8326 c-23 -7 -75 -29 -115 -49 -41 -20 -86 -38 -101 -41 -29
-7 -43 -34 -33 -66 8 -26 52 -26 85 1 45 36 94 66 121 72 23 6 28 3 33 -17 9
-37 -3 -55 -45 -66 -70 -19 -36 -59 38 -45 60 11 92 68 58 101 -26 26 -17 48
26 66 29 12 40 22 37 35 -4 23 -49 27 -104 9z"/>
<path d="M2283 8213 c-21 -8 -16 -16 40 -74 51 -52 127 -183 127 -218 0 -9
-10 -26 -22 -38 -59 -55 -106 -104 -138 -142 -24 -30 -46 -45 -70 -50 -44 -9
-50 -34 -15 -67 48 -45 73 -29 158 102 50 78 95 120 110 105 6 -6 3 -37 -7
-83 -14 -61 -24 -83 -61 -125 -48 -55 -57 -83 -25 -83 24 0 86 59 130 125 39
59 48 117 31 204 -11 57 -11 61 18 113 78 137 87 168 51 168 -28 0 -70 -44
-70 -73 0 -25 -38 -82 -48 -73 -3 3 -13 27 -22 53 -43 117 -52 138 -58 144 -9
9 -114 18 -129 12z"/>
<path d="M6637 8093 c-15 -32 -32 -65 -37 -73 -5 -8 -36 -61 -69 -116 -32 -56
-73 -121 -91 -145 -29 -41 -30 -44 -13 -57 10 -7 31 -12 47 -10 25 3 35 13 63
68 19 36 44 81 55 100 43 70 69 116 82 145 8 17 26 41 40 54 32 30 32 41 3 69
-36 34 -50 27 -80 -35z"/>
<path d="M6794 8093 c-25 -59 -33 -77 -44 -93 -25 -39 -123 -206 -131 -225
-12 -28 -27 -50 -76 -118 -50 -66 -52 -81 -18 -103 37 -24 56 -14 90 51 43 82
73 134 96 170 10 17 23 39 29 50 5 11 14 27 19 35 5 8 32 54 60 101 28 48 58
89 66 93 23 9 18 30 -15 54 -41 31 -57 28 -76 -15z"/>
<path d="M4252 8053 c3 -16 21 -18 198 -20 214 -2 240 0 240 22 0 13 -32 15
-221 15 -205 0 -220 -1 -217 -17z"/>
<path d="M3985 8029 c-4 -6 -4 -13 0 -17 8 -8 152 -4 180 5 19 6 18 7 -5 14
-40 11 -168 10 -175 -2z"/>
<path d="M4877 8034 c-13 -14 6 -24 44 -24 28 0 39 4 39 15 0 11 -11 15 -38
15 -21 0 -42 -3 -45 -6z"/>
<path d="M4770 8020 c20 -13 67 -13 75 0 4 6 -12 10 -42 10 -35 0 -44 -3 -33
-10z"/>
<path d="M3817 8003 c-23 -22 18 -38 59 -23 23 9 25 13 14 20 -17 11 -64 13
-73 3z"/>
<path d="M5085 8000 c-10 -15 -2 -21 31 -23 20 -1 29 3 29 13 0 18 -50 26 -60
10z"/>
<path d="M3670 7966 c0 -23 19 -29 51 -16 41 17 36 30 -11 30 -28 0 -40 -4
-40 -14z"/>
<path d="M5220 7971 c0 -12 67 -34 80 -26 5 3 10 13 10 21 0 10 -12 14 -45 14
-25 0 -45 -4 -45 -9z"/>
<path d="M3514 7939 c-10 -18 18 -30 55 -25 39 6 46 11 36 25 -8 14 -82 14
-91 0z"/>
<path d="M5386 7941 c-4 -5 1 -14 9 -19 21 -11 77 -3 72 12 -5 14 -73 20 -81
7z"/>
<path d="M4120 7929 c-14 -4 -69 -12 -123 -18 -53 -6 -131 -20 -173 -31 -41
-11 -79 -18 -84 -15 -5 3 -17 1 -27 -4 -29 -16 -85 -31 -93 -26 -4 3 -21 -2
-36 -10 -16 -8 -39 -15 -51 -15 -12 0 -34 -6 -50 -14 -15 -8 -73 -29 -128 -46
-112 -35 -121 -38 -186 -69 -25 -11 -53 -21 -61 -21 -9 0 -21 -7 -28 -15 -7
-8 -17 -15 -22 -15 -16 0 -195 -89 -263 -130 -34 -21 -71 -41 -83 -44 -12 -4
-22 -12 -22 -17 0 -5 -6 -9 -12 -9 -7 -1 -29 -14 -48 -30 -19 -17 -40 -30 -46
-30 -11 0 -41 -21 -130 -94 -18 -15 -35 -26 -39 -26 -8 0 -89 -64 -126 -100
-14 -14 -57 -52 -95 -85 -87 -76 -213 -201 -284 -284 -30 -35 -68 -78 -84 -95
-16 -17 -58 -69 -92 -116 -35 -47 -73 -98 -86 -114 -13 -16 -28 -38 -33 -50
-11 -23 -66 -108 -75 -116 -4 -3 -16 -23 -27 -45 -12 -22 -37 -69 -57 -105
-35 -62 -51 -95 -118 -240 -64 -140 -88 -196 -88 -209 0 -6 -4 -19 -9 -29 -16
-32 -35 -91 -67 -207 -9 -33 -21 -65 -26 -72 -5 -7 -7 -16 -4 -21 3 -5 -3 -33
-14 -63 -11 -29 -20 -62 -20 -73 0 -11 -7 -47 -15 -80 -17 -71 -46 -295 -53
-416 -10 -146 -5 -497 7 -578 7 -42 18 -124 26 -182 20 -146 36 -232 45 -251
5 -9 12 -38 15 -65 4 -27 11 -53 15 -59 10 -14 50 -149 50 -172 0 -10 7 -27
15 -37 8 -11 15 -29 15 -40 0 -12 7 -30 15 -40 8 -11 15 -30 15 -42 0 -13 4
-25 9 -28 5 -3 12 -18 16 -33 6 -27 20 -57 97 -223 48 -103 135 -255 154 -271
8 -6 14 -17 14 -23 0 -6 16 -33 35 -60 19 -27 35 -53 35 -57 0 -4 11 -20 25
-35 14 -15 25 -32 25 -39 0 -7 7 -19 16 -26 9 -7 38 -42 65 -79 54 -72 113
-141 174 -205 22 -23 65 -71 95 -106 63 -73 104 -114 140 -137 26 -17 80 -65
131 -115 16 -16 57 -50 92 -75 35 -26 86 -63 112 -82 56 -41 215 -142 263
-167 17 -9 32 -20 32 -25 0 -4 6 -8 13 -8 6 0 26 -7 42 -16 17 -9 75 -39 130
-66 55 -28 126 -63 158 -79 32 -16 62 -27 67 -24 5 3 37 -8 71 -25 33 -16 66
-30 71 -30 5 0 24 -6 41 -14 18 -8 64 -22 102 -31 39 -9 84 -23 100 -30 17 -8
53 -19 80 -25 100 -23 191 -41 225 -45 19 -2 87 -11 150 -19 63 -8 156 -19
205 -23 261 -23 710 5 915 57 25 7 56 12 70 13 14 1 30 5 35 8 6 4 32 10 59
14 27 3 56 11 65 15 26 14 148 50 170 50 11 0 22 4 26 9 3 5 20 13 37 17 18 3
39 10 48 15 25 14 94 43 105 44 10 0 77 29 107 45 10 6 24 10 32 10 7 0 24 8
37 18 13 10 44 27 69 37 71 31 236 123 250 140 7 8 18 15 24 15 7 0 30 13 52
30 21 16 44 30 50 30 7 0 29 16 50 35 22 19 44 35 50 35 6 0 21 11 34 25 13
14 27 25 32 25 10 0 94 64 128 98 14 15 62 59 106 97 101 90 204 193 274 275
30 35 67 77 82 92 15 16 37 43 50 61 12 18 30 41 40 51 10 11 30 38 45 60 15
23 40 56 55 74 15 18 28 38 28 43 0 6 14 28 30 49 17 21 30 42 30 48 0 5 10
21 21 36 12 15 33 49 48 76 80 151 130 254 136 280 4 17 11 32 16 35 12 8 49
90 49 109 0 8 5 18 10 21 6 3 10 13 10 22 0 8 6 29 14 46 7 18 23 66 36 107
13 41 27 79 31 85 5 5 9 20 9 35 0 14 6 37 14 52 8 14 17 49 21 77 4 28 11 53
16 57 5 3 9 20 9 38 0 18 6 55 14 82 8 27 20 99 26 159 7 61 16 132 21 158 12
64 12 586 -1 656 -5 31 -14 101 -20 156 -15 144 -17 156 -30 200 -7 22 -13 51
-14 65 -1 14 -4 30 -8 35 -3 6 -9 33 -13 60 -4 28 -11 55 -15 60 -9 12 -50
144 -50 161 0 6 -7 25 -15 40 -8 16 -15 39 -15 51 0 12 -4 25 -10 28 -5 3 -10
13 -10 21 0 9 -14 45 -30 81 -17 35 -30 70 -30 77 0 8 -6 19 -14 25 -8 7 -17
25 -21 40 -8 37 -78 174 -169 332 -12 20 -38 61 -58 93 -21 31 -38 60 -38 65
0 4 -10 19 -21 32 -12 13 -31 40 -44 59 -12 19 -30 41 -39 49 -9 7 -16 19 -16
27 0 7 -6 17 -13 21 -7 4 -20 20 -30 35 -9 15 -32 43 -50 61 -17 19 -64 69
-103 113 -39 43 -95 106 -125 139 -30 33 -90 89 -134 125 -44 36 -93 79 -110
96 -16 17 -43 40 -60 50 -16 10 -34 24 -38 31 -4 7 -14 13 -21 13 -8 0 -19 7
-27 16 -11 13 -92 72 -137 99 -9 5 -33 21 -52 35 -19 14 -47 32 -63 40 -15 8
-69 40 -119 70 -51 30 -97 57 -103 59 -16 6 -158 71 -178 82 -9 5 -43 19 -75
30 -31 12 -61 25 -67 30 -5 5 -17 9 -28 9 -10 0 -28 5 -40 12 -30 16 -118 47
-137 48 -8 0 -28 7 -44 15 -15 8 -38 15 -50 15 -11 0 -32 6 -46 13 -15 8 -48
17 -74 20 -27 4 -55 12 -62 18 -7 6 -17 8 -21 6 -5 -3 -35 1 -68 10 -33 8
-109 21 -170 29 -60 8 -137 19 -170 24 -71 11 -679 10 -715 -1z m625 -74 c147
-6 250 -18 350 -42 33 -8 71 -16 85 -18 68 -11 287 -72 305 -85 6 -4 28 -11
50 -14 22 -4 76 -23 119 -42 44 -19 84 -34 90 -34 6 0 62 -23 125 -51 100 -46
164 -79 305 -159 101 -56 310 -199 357 -243 13 -12 31 -26 40 -32 125 -74 619
-588 619 -644 0 -5 14 -19 30 -31 17 -12 30 -27 30 -35 0 -7 15 -31 33 -54 51
-64 69 -92 105 -161 18 -35 39 -72 47 -81 8 -8 15 -20 15 -26 0 -5 13 -30 30
-54 16 -24 30 -51 30 -61 0 -9 18 -48 40 -87 39 -68 56 -109 86 -200 7 -24 18
-49 24 -55 5 -7 16 -37 24 -68 8 -31 19 -66 26 -77 6 -11 15 -40 20 -63 5 -24
18 -77 30 -118 12 -41 23 -91 24 -110 2 -19 7 -44 13 -55 16 -30 34 -143 48
-305 15 -161 12 -707 -4 -800 -5 -30 -16 -99 -25 -153 -9 -54 -23 -124 -32
-155 -8 -31 -22 -83 -30 -114 -8 -31 -23 -78 -35 -105 -11 -26 -25 -73 -31
-103 -5 -30 -18 -63 -29 -73 -10 -10 -19 -30 -19 -45 0 -16 -4 -32 -8 -37 -5
-6 -19 -39 -32 -75 -13 -36 -29 -72 -37 -81 -7 -8 -13 -21 -13 -28 0 -16 -49
-121 -65 -141 -7 -8 -32 -51 -55 -95 -23 -44 -48 -87 -55 -95 -7 -8 -16 -25
-19 -37 -4 -13 -24 -45 -45 -71 -21 -27 -46 -62 -55 -80 -9 -17 -24 -37 -33
-44 -10 -7 -31 -31 -46 -53 -59 -85 -80 -112 -144 -180 -84 -90 -258 -266
-282 -285 -51 -41 -91 -80 -91 -89 0 -5 -21 -22 -46 -38 -25 -15 -80 -57 -123
-93 -78 -65 -135 -104 -215 -148 -22 -12 -52 -30 -66 -41 -14 -10 -45 -28 -70
-40 -44 -21 -61 -31 -110 -63 -14 -8 -43 -21 -65 -28 -22 -7 -51 -21 -64 -31
-13 -11 -30 -19 -37 -19 -14 0 -114 -39 -189 -75 -94 -45 -283 -104 -395 -124
-25 -5 -90 -20 -145 -34 -239 -60 -660 -80 -988 -47 -103 11 -192 22 -198 26
-6 3 -38 10 -72 15 -110 16 -183 33 -292 67 -16 5 -68 22 -115 37 -181 57
-451 172 -533 226 -32 21 -64 36 -71 33 -7 -3 -21 4 -31 16 -10 11 -23 20 -28
20 -6 0 -25 11 -43 25 -18 14 -36 25 -41 25 -15 1 -192 121 -193 132 0 4 -13
14 -29 23 -16 8 -50 32 -74 52 -25 21 -70 58 -101 83 -31 25 -59 53 -62 63 -3
9 -12 17 -19 17 -16 0 -230 209 -265 260 -13 19 -37 47 -52 62 -15 14 -28 31
-28 37 0 6 -7 11 -16 11 -9 0 -21 14 -27 30 -6 17 -14 30 -18 30 -10 0 -113
139 -149 200 -18 30 -39 63 -48 73 -15 17 -31 42 -55 87 -7 14 -24 43 -37 65
-55 88 -173 326 -189 380 -7 22 -18 54 -26 70 -25 57 -33 80 -50 140 -9 33
-22 74 -29 90 -8 17 -19 57 -26 90 -6 33 -18 74 -25 90 -8 17 -18 59 -24 95
-6 36 -15 94 -21 130 -12 67 -29 195 -35 265 -9 99 -12 489 -4 556 7 67 14
119 38 299 4 30 12 71 18 90 7 19 21 80 33 135 12 55 28 117 36 138 8 20 14
45 14 55 0 9 9 39 19 67 62 165 86 225 106 270 13 28 26 60 30 73 3 12 22 46
41 75 19 28 34 56 34 62 0 5 16 39 35 75 18 36 44 84 56 108 13 23 27 42 31
42 5 0 13 10 18 23 17 36 62 112 105 173 22 31 47 67 55 80 9 12 43 51 75 86
33 36 73 82 90 104 16 21 63 73 105 114 41 42 92 94 112 115 20 22 70 65 112
95 42 30 76 60 76 66 0 6 25 29 55 49 30 21 55 42 55 47 0 4 17 16 37 25 21
10 65 38 98 63 89 68 170 120 187 120 9 0 21 7 28 15 14 17 118 75 135 75 7 0
20 9 29 19 9 10 27 21 39 24 39 9 91 32 117 50 13 9 30 17 36 17 7 0 61 19
121 43 59 24 137 51 173 61 36 10 82 25 104 33 21 7 68 21 105 29 36 8 84 20
106 25 190 47 425 73 605 65 86 -3 151 -2 160 4 8 5 24 7 35 5 11 -2 83 -7
160 -10z"/>
<path d="M4375 7605 c-122 -22 -285 -104 -334 -167 -25 -31 -60 -130 -62 -170
-2 -55 13 -131 31 -163 10 -16 41 -75 70 -130 29 -55 58 -107 65 -115 44 -52
48 -77 50 -315 1 -126 6 -312 10 -412 6 -134 4 -190 -4 -211 -14 -34 -84 -70
-146 -77 -111 -12 -165 -22 -180 -35 -9 -7 -31 -15 -48 -16 -39 -3 -117 -23
-137 -36 -8 -5 -55 -29 -105 -54 -110 -55 -143 -78 -222 -156 -43 -42 -74 -85
-103 -144 -37 -73 -42 -90 -42 -153 0 -68 8 -104 40 -186 40 -100 169 -225
302 -292 14 -7 32 -17 40 -22 13 -8 89 -44 175 -81 56 -24 146 -50 197 -55 32
-4 60 -11 63 -16 4 -5 21 -9 38 -10 18 0 57 -6 87 -12 51 -11 55 -14 63 -47 4
-19 11 -45 14 -58 8 -32 -16 -81 -48 -97 -16 -9 -70 -17 -131 -20 -129 -6
-195 -14 -232 -26 -16 -5 -44 -9 -62 -9 -18 0 -45 -6 -61 -14 -15 -8 -59 -20
-98 -27 -107 -19 -155 -44 -238 -126 -78 -77 -101 -127 -101 -223 0 -69 3 -79
35 -124 19 -26 41 -59 49 -72 17 -26 128 -114 144 -114 6 0 27 -11 46 -24 19
-13 49 -25 65 -28 17 -3 53 -15 80 -26 28 -11 79 -28 115 -37 36 -10 85 -24
110 -32 57 -19 111 -32 175 -42 28 -5 64 -13 80 -19 17 -7 42 -14 57 -17 52
-10 77 -110 44 -179 -23 -48 -35 -55 -123 -71 -264 -47 -447 -117 -531 -203
-54 -57 -72 -96 -72 -159 1 -67 41 -136 110 -189 52 -40 167 -94 201 -94 8 0
23 -6 34 -14 11 -7 47 -18 80 -25 33 -6 80 -16 105 -21 25 -6 65 -15 91 -20
25 -4 64 -13 87 -19 45 -13 44 -10 43 -130 0 -51 -24 -90 -97 -166 -79 -81
-114 -135 -114 -176 0 -20 -5 -50 -11 -67 -11 -33 3 -76 23 -70 14 5 40 85 39
119 -1 15 5 29 14 33 8 3 15 11 15 19 0 13 103 117 116 117 4 0 31 12 61 26
39 19 52 31 49 43 -3 9 -6 50 -6 91 0 41 -1 86 -1 100 0 14 0 36 0 50 1 14 4
125 7 248 7 247 5 258 -50 249 -17 -3 -76 -13 -131 -22 -55 -9 -120 -20 -145
-24 -74 -12 -110 -32 -110 -61 0 -23 7 -28 58 -45 31 -10 61 -22 66 -27 6 -4
19 -8 29 -8 10 0 33 -6 50 -14 18 -8 60 -20 95 -27 l62 -13 0 -89 0 -88 -47 6
c-27 4 -57 10 -68 14 -37 15 -136 42 -183 51 -76 13 -175 41 -199 56 -12 8
-28 14 -36 14 -22 0 -90 37 -126 69 -33 28 -34 32 -35 101 l-1 72 45 39 c24
21 56 41 71 44 15 3 35 15 45 26 9 10 28 19 41 19 13 0 36 6 51 13 15 8 54 19
87 26 62 13 120 27 167 41 15 5 36 6 47 3 12 -3 33 0 49 6 15 6 54 12 87 14
l60 2 0 205 c0 300 -12 670 -23 705 -8 29 -11 30 -63 28 -104 -4 -364 -22
-394 -27 -16 -3 -47 -8 -67 -12 -48 -8 -84 -45 -70 -71 11 -20 130 -83 157
-83 8 0 23 -4 33 -10 25 -14 102 -30 229 -48 l112 -15 3 -140 c3 -156 -2 -170
-51 -141 -23 13 -33 15 -44 6 -10 -9 -16 -9 -25 0 -18 18 -79 36 -94 27 -7 -5
-19 -2 -28 6 -9 8 -40 19 -68 25 -29 5 -64 16 -79 23 -16 8 -55 19 -88 27 -33
7 -73 19 -89 27 -16 8 -49 21 -75 29 -108 32 -254 146 -300 235 -27 51 -26 66
4 111 14 20 25 41 25 46 0 5 9 17 20 27 11 10 20 24 20 32 0 7 12 18 27 24 15
6 34 16 42 22 33 28 161 68 271 87 30 5 78 14 105 20 28 7 86 13 130 15 44 2
142 6 218 10 l139 7 -8 97 c-3 52 -11 109 -15 125 -5 18 -5 34 2 42 12 15 8
260 -11 589 -13 235 -14 245 -4 344 l6 64 -84 -8 c-45 -4 -87 -10 -93 -15 -5
-4 -35 -11 -65 -15 -30 -4 -59 -10 -65 -14 -5 -4 -30 -13 -54 -20 -88 -25
-155 -63 -218 -125 -69 -68 -77 -93 -49 -161 13 -31 123 -125 147 -125 5 0 32
-11 61 -25 28 -14 58 -25 66 -25 8 0 28 -6 45 -14 37 -16 105 -35 162 -44 51
-9 66 -39 70 -141 1 -42 5 -83 9 -93 4 -9 6 -29 4 -45 -3 -24 -8 -28 -36 -31
-18 -2 -39 1 -45 6 -15 12 -120 44 -132 41 -12 -3 -76 11 -90 20 -5 3 -19 7
-30 7 -11 1 -36 7 -55 14 -19 7 -44 16 -55 20 -42 14 -222 105 -275 137 -30
19 -73 56 -95 83 -22 27 -48 51 -57 55 -9 3 -33 40 -52 81 -52 108 -50 152 11
280 22 48 137 164 161 164 5 0 17 9 28 21 18 20 200 113 258 131 40 13 104 28
136 33 14 2 52 11 85 20 33 9 68 14 78 11 10 -2 32 0 49 5 17 4 61 9 97 10 77
2 86 5 70 26 -9 10 -10 20 -3 31 7 11 7 43 2 92 -5 41 -12 271 -16 510 -7 424
-7 435 -27 438 -11 2 -36 22 -57 44 -30 34 -34 44 -25 59 9 15 6 25 -21 56
-47 55 -74 100 -93 156 -14 42 -15 56 -4 97 7 26 20 61 30 77 24 41 139 114
202 129 28 6 56 14 61 18 5 3 49 12 98 20 76 12 98 12 164 -1 41 -7 83 -18 93
-24 13 -7 23 -7 31 0 10 8 18 6 31 -9 10 -11 34 -24 54 -30 37 -10 108 -69
149 -123 31 -43 32 -171 2 -210 -11 -14 -20 -31 -20 -39 0 -8 -20 -34 -45 -58
-28 -28 -45 -53 -45 -68 0 -15 -18 -42 -49 -73 l-49 -49 -5 -153 c-3 -83 -10
-206 -15 -272 -7 -80 -7 -124 0 -132 7 -9 6 -39 -1 -94 -6 -45 -11 -158 -11
-251 0 -140 2 -168 14 -168 8 0 18 5 21 11 4 6 14 7 24 4 17 -7 233 -27 286
-27 30 0 106 -11 200 -28 28 -5 95 -17 150 -26 55 -9 110 -23 122 -30 12 -8
33 -14 46 -14 14 0 30 -7 37 -15 7 -8 20 -15 30 -15 10 0 23 -7 30 -15 7 -8
30 -20 51 -25 22 -6 39 -16 39 -23 0 -6 12 -22 28 -35 16 -14 22 -25 15 -28
-6 -3 -21 -14 -34 -25 -12 -10 -29 -19 -37 -19 -8 0 -30 -11 -49 -26 -24 -18
-38 -22 -49 -16 -10 6 -33 6 -55 1 -24 -6 -57 -5 -84 1 -33 7 -50 7 -64 -2
-16 -10 -23 -9 -38 2 -31 26 -62 40 -85 40 -13 0 -35 6 -49 14 -14 7 -48 17
-74 20 -26 4 -55 12 -64 17 -9 4 -45 13 -81 19 -81 14 -344 40 -349 35 -2 -3
-5 -71 -8 -152 -2 -81 -8 -181 -14 -222 -6 -41 -10 -126 -8 -190 2 -117 -14
-428 -30 -575 -6 -54 -5 -85 2 -97 8 -13 8 -21 -1 -32 -7 -7 -9 -17 -5 -20 9
-9 384 -7 458 2 33 5 67 5 75 1 15 -7 139 3 195 15 17 3 40 8 53 11 35 7 30
53 -11 85 -38 29 -64 40 -172 69 -44 12 -101 28 -127 37 -26 8 -53 13 -60 10
-7 -2 -33 2 -58 10 -25 8 -79 16 -120 18 -151 9 -160 15 -135 99 8 27 15 84
15 128 0 85 4 90 56 63 16 -8 42 -15 57 -15 16 0 38 -5 49 -11 12 -6 48 -13
81 -14 33 -2 64 -8 70 -14 6 -6 28 -11 49 -11 20 0 58 -7 84 -16 25 -8 53 -13
61 -10 9 4 31 -3 50 -14 19 -11 43 -20 55 -20 21 0 110 -26 141 -42 10 -5 22
-6 28 -2 6 3 20 -3 32 -14 12 -11 42 -30 67 -42 56 -28 150 -97 150 -110 0 -6
10 -20 22 -32 18 -18 21 -33 22 -107 0 -55 -4 -95 -13 -111 -28 -51 -81 -108
-113 -120 -18 -7 -39 -18 -47 -24 -13 -11 -61 -25 -151 -47 -41 -9 -135 -19
-200 -21 -14 -1 -122 -7 -240 -15 -203 -14 -359 -13 -406 2 -20 6 -21 2 -29
-97 -4 -57 -10 -157 -12 -223 -10 -291 -21 -512 -28 -539 l-8 -28 102 5 c57 3
109 11 116 17 8 7 36 12 62 12 26 0 58 7 70 14 12 8 38 14 56 14 40 0 67 25
67 63 0 29 -23 45 -100 66 -25 7 -67 18 -95 26 -27 8 -81 20 -118 26 l-68 13
7 125 c9 163 10 165 71 135 26 -13 63 -24 81 -24 18 0 45 -6 60 -14 15 -8 41
-16 57 -19 47 -8 149 -38 159 -48 6 -5 21 -9 35 -9 29 0 221 -92 258 -123 46
-39 53 -48 53 -66 0 -9 4 -21 9 -26 13 -14 16 -44 7 -91 -5 -30 -19 -52 -49
-81 -63 -60 -189 -121 -275 -133 -29 -4 -58 -12 -64 -18 -7 -7 -22 -12 -33
-12 -12 0 -25 -3 -29 -7 -4 -4 -22 -6 -41 -4 -18 1 -42 -2 -53 -8 -11 -6 -51
-13 -88 -15 -38 -3 -87 -10 -109 -15 -22 -6 -59 -11 -81 -11 -23 0 -46 -6 -52
-13 -13 -16 -36 -324 -38 -517 0 -80 -4 -162 -9 -182 -7 -36 -6 -38 18 -38 13
0 42 7 63 16 20 9 58 20 83 24 25 5 66 14 91 20 25 6 59 13 75 15 90 12 110
20 110 44 0 29 -15 35 -220 87 -33 8 -78 18 -100 22 l-40 7 -3 77 c-2 68 -1
77 16 82 11 4 32 2 48 -5 16 -6 49 -14 74 -19 69 -12 138 -31 210 -57 93 -34
108 -43 157 -90 35 -34 43 -49 43 -78 0 -35 -36 -105 -62 -122 -20 -12 -81
-33 -100 -33 -9 0 -29 -6 -45 -14 -30 -15 -79 -26 -238 -52 -55 -9 -118 -21
-140 -27 l-40 -12 -2 -80 c-1 -44 -6 -163 -11 -265 -6 -115 -6 -192 0 -203 5
-10 8 -20 6 -21 -20 -12 -81 -36 -91 -36 -7 1 -23 10 -37 21 l-25 21 2 259 c2
165 -1 260 -7 264 -10 6 -33 -10 -121 -84 -45 -39 -79 -97 -79 -136 0 -18 -9
-31 -30 -43 -36 -20 -38 -32 -7 -32 13 0 38 15 57 35 19 19 41 35 49 35 18 -1
53 -25 46 -31 -2 -3 3 -60 12 -128 13 -105 20 -130 45 -167 87 -129 245 -45
253 135 10 191 17 276 26 292 5 10 9 29 9 43 0 42 57 71 210 106 74 16 143 30
153 30 58 0 193 102 216 163 21 55 14 129 -18 178 -35 57 -93 106 -146 126
-137 50 -208 71 -219 67 -8 -3 -31 2 -52 12 -22 9 -50 17 -64 18 -15 1 -25 7
-25 17 0 8 -8 27 -18 42 -25 39 -21 58 26 111 l42 48 95 9 c52 5 103 14 113
20 10 6 32 7 49 4 19 -5 33 -3 38 4 4 7 40 20 81 30 166 42 213 60 281 110 60
44 113 115 128 171 13 48 5 165 -11 176 -5 3 -20 22 -33 43 -25 39 -137 119
-196 141 -19 6 -51 20 -70 29 -19 10 -55 23 -80 30 -73 20 -183 52 -206 61
-12 5 -43 11 -70 15 -27 4 -72 16 -101 27 -48 20 -52 24 -57 63 -7 43 0 75 15
75 5 0 9 7 9 15 0 30 61 44 225 50 376 13 544 34 686 83 84 30 109 45 169 107
82 85 107 185 79 317 -14 63 -66 130 -164 208 -60 48 -133 82 -235 111 -19 6
-48 14 -65 19 -109 33 -146 42 -195 50 -30 5 -75 14 -100 20 -49 13 -232 48
-293 57 -64 9 -77 42 -77 194 0 142 22 310 45 345 14 22 22 24 93 24 50 0 110
-9 172 -26 52 -14 115 -29 140 -34 25 -5 70 -16 100 -25 137 -40 322 -43 407
-5 60 26 120 77 132 112 18 51 3 87 -67 155 -36 34 -70 63 -75 63 -6 0 -46 15
-91 34 -45 18 -106 39 -136 45 -188 38 -286 53 -408 62 -75 5 -159 15 -185 20
-70 16 -80 47 -72 204 4 66 8 194 9 285 2 220 15 395 32 448 8 24 30 64 49 89
19 25 35 51 35 58 0 7 7 18 15 25 30 25 84 135 95 196 21 110 -15 220 -97 294
-50 45 -101 80 -116 80 -7 0 -17 4 -22 8 -27 23 -233 63 -321 61 -32 -1 -91
-7 -129 -14z m-179 -2188 c8 -8 25 -241 22 -307 -2 -61 -6 -74 -18 -71 -8 2
-46 10 -84 17 -185 36 -341 132 -320 196 19 61 65 92 229 154 44 17 74 22 114
18 30 -2 56 -5 57 -7z m649 -957 c3 -5 30 -10 59 -10 54 0 126 -23 126 -39 0
-15 -50 -24 -148 -26 -84 -2 -94 0 -107 19 -8 11 -15 26 -15 34 0 23 72 42 85
22z m-681 -555 c3 -9 0 -15 -9 -15 -16 0 -27 14 -18 24 10 10 21 7 27 -9z"/>
<path d="M3835 6728 c-22 -4 -67 -12 -100 -18 -33 -5 -98 -17 -145 -26 -100
-19 -162 -30 -246 -43 -34 -5 -71 -14 -82 -20 -12 -6 -36 -11 -56 -11 -19 0
-36 -5 -38 -10 -2 -6 -28 -17 -58 -24 -110 -28 -251 -75 -338 -113 -29 -13
-57 -23 -63 -23 -6 0 -33 -11 -61 -25 -27 -14 -56 -25 -65 -25 -8 0 -27 -9
-42 -19 -15 -11 -73 -42 -129 -69 -56 -28 -122 -64 -147 -81 -25 -17 -52 -31
-60 -31 -8 0 -18 -6 -22 -14 -4 -8 -25 -24 -45 -36 -21 -12 -38 -26 -38 -31 0
-5 -6 -9 -14 -9 -17 0 -145 -108 -228 -192 -31 -32 -61 -58 -67 -58 -6 0 -23
-19 -38 -42 -15 -24 -47 -67 -72 -96 -44 -54 -81 -116 -81 -138 0 -6 -6 -17
-14 -23 -18 -16 -80 -144 -96 -201 -7 -25 -16 -56 -21 -70 -50 -148 -52 -393
-5 -555 33 -116 67 -207 97 -261 18 -33 45 -84 62 -114 16 -30 35 -60 42 -66
8 -6 34 -38 59 -72 57 -76 266 -287 294 -297 12 -3 22 -13 22 -21 0 -8 6 -14
13 -14 6 -1 28 -14 47 -30 19 -17 39 -30 46 -30 6 0 19 -9 29 -20 24 -27 197
-141 265 -175 30 -15 58 -32 61 -36 3 -5 28 -17 56 -27 28 -10 57 -23 65 -28
7 -6 42 -24 78 -41 36 -16 92 -43 125 -58 106 -50 248 -98 305 -102 52 -4 57
-3 99 35 l44 39 -5 68 c-4 68 -5 69 -53 112 -27 24 -55 43 -61 43 -12 0 -94
34 -179 75 -272 130 -361 177 -395 210 -14 14 -34 25 -43 25 -9 0 -17 4 -17 8
0 5 -21 23 -48 39 -26 17 -58 43 -71 57 -14 14 -32 26 -42 26 -10 0 -20 9 -24
19 -3 11 -22 32 -43 47 -48 36 -85 75 -144 149 -26 33 -52 65 -58 72 -5 6 -17
30 -26 52 -9 23 -19 41 -23 41 -9 0 -45 72 -70 140 -29 80 -46 211 -32 251 6
18 11 45 11 61 0 16 6 41 14 56 7 15 16 44 19 65 3 20 20 58 36 83 17 25 31
47 31 50 0 9 82 124 89 124 4 0 13 11 19 24 6 13 20 27 30 30 11 4 22 15 25
26 3 11 16 24 29 29 13 5 36 25 52 45 15 20 34 36 42 36 7 0 14 5 14 10 0 6 6
10 13 10 7 0 26 14 42 30 16 17 35 30 42 30 8 0 26 8 41 18 34 24 139 84 172
100 14 7 32 16 40 21 38 24 149 71 166 71 11 0 24 4 30 10 14 14 193 76 243
84 24 3 55 13 71 21 15 8 62 23 106 35 71 19 124 30 289 60 28 5 79 16 115 23
36 8 90 18 120 22 92 12 143 32 167 68 31 45 40 150 33 384 -5 190 -6 193 -31
218 -32 33 -119 54 -174 43z m148 -340 c-2 -222 -6 -294 -15 -300 -7 -4 -42
-8 -78 -8 -36 -1 -85 -5 -110 -11 -25 -6 -70 -14 -100 -19 -30 -5 -98 -18
-150 -30 -52 -12 -119 -26 -149 -31 -30 -5 -59 -13 -65 -16 -6 -4 -28 -10 -51
-14 -22 -4 -53 -12 -70 -17 -16 -6 -64 -21 -105 -33 -41 -12 -79 -26 -85 -30
-5 -5 -18 -9 -28 -9 -19 0 -65 -18 -120 -46 -16 -8 -35 -14 -44 -14 -8 0 -27
-6 -41 -14 -15 -8 -76 -38 -137 -67 -204 -97 -346 -193 -478 -323 -62 -60
-127 -140 -127 -155 0 -5 -3 -11 -7 -13 -14 -6 -53 -67 -53 -81 0 -8 -6 -20
-14 -26 -8 -6 -16 -22 -19 -34 -3 -12 -16 -51 -29 -87 -37 -98 -51 -258 -30
-350 23 -103 89 -244 155 -331 15 -20 27 -40 27 -44 0 -32 223 -250 322 -315
21 -14 38 -28 38 -32 0 -6 83 -61 120 -81 8 -4 29 -16 45 -27 77 -49 243 -134
345 -177 47 -19 97 -41 112 -49 14 -8 33 -14 41 -14 25 0 115 -54 137 -83 28
-36 21 -87 -17 -117 -32 -25 -47 -25 -98 0 -22 11 -45 19 -52 20 -6 0 -24 6
-40 14 -36 18 -83 39 -153 66 -92 37 -234 105 -325 157 -22 12 -49 27 -60 32
-11 5 -37 21 -58 35 -21 14 -40 26 -43 26 -3 0 -10 5 -17 10 -7 6 -46 33 -87
60 -96 63 -110 73 -124 85 -6 6 -25 20 -42 32 -97 69 -262 235 -358 362 -42
55 -76 104 -76 110 0 5 -6 16 -12 23 -20 20 -108 209 -108 229 0 6 -6 25 -14
42 -26 61 -39 163 -39 312 0 146 9 211 41 288 7 16 12 34 12 41 0 16 117 246
136 267 8 8 14 19 14 23 0 8 40 62 90 121 80 94 314 305 339 305 5 0 14 6 18
13 9 14 100 76 158 107 11 6 47 26 80 44 88 50 144 77 310 150 17 8 48 20 70
29 22 9 75 29 119 46 43 17 85 31 93 31 8 0 29 6 46 14 18 7 52 18 77 25 25 6
70 19 100 27 112 30 176 45 231 53 30 5 71 13 90 19 35 11 130 27 259 43 41 5
79 14 84 19 6 6 35 10 66 10 l55 0 -2 -292z"/>
<path d="M5030 6722 c-39 -18 -69 -46 -79 -74 -7 -19 -11 -124 -11 -266 l0
-234 26 -49 c28 -50 29 -50 134 -79 19 -6 58 -12 85 -14 28 -3 77 -11 110 -19
33 -9 105 -23 160 -32 55 -9 114 -23 130 -30 17 -7 59 -18 95 -25 36 -6 78
-18 94 -26 16 -8 36 -14 45 -14 15 0 62 -16 296 -100 50 -18 92 -36 93 -41 2
-5 9 -9 17 -9 19 0 101 -38 148 -69 23 -16 81 -49 130 -75 48 -26 100 -61 116
-77 16 -16 32 -29 36 -29 3 0 20 -16 38 -35 17 -19 37 -35 43 -35 16 0 110
-103 141 -155 14 -22 31 -44 37 -50 21 -16 86 -146 86 -170 0 -11 7 -30 15
-41 8 -10 15 -33 15 -51 0 -18 5 -55 11 -82 12 -55 -1 -171 -27 -249 -52 -157
-203 -358 -383 -510 -24 -20 -59 -51 -79 -69 -19 -17 -56 -42 -81 -55 -25 -13
-62 -36 -83 -53 -35 -29 -217 -124 -343 -180 -101 -45 -165 -77 -171 -86 -3
-5 -14 -9 -25 -9 -35 0 -77 -29 -115 -78 -33 -43 -36 -51 -30 -97 5 -41 12
-56 43 -84 34 -32 43 -35 93 -33 30 0 82 10 115 21 70 23 203 77 219 90 6 4
22 11 36 14 31 6 93 30 100 38 3 3 32 19 65 36 134 68 166 85 227 123 35 22
74 46 88 52 14 7 48 31 77 55 28 24 57 43 65 43 7 0 21 8 29 18 9 9 33 31 54
47 80 64 102 83 184 164 94 91 251 286 277 341 9 19 37 76 62 125 42 86 73
182 92 288 20 111 5 453 -21 482 -5 5 -9 18 -9 30 0 12 -4 25 -8 30 -5 6 -19
42 -31 82 -13 40 -32 82 -42 94 -10 12 -19 30 -19 40 0 10 -5 21 -10 24 -6 4
-20 27 -32 51 -11 25 -33 57 -47 72 -14 15 -39 46 -55 69 -34 51 -167 183
-255 252 -35 29 -69 57 -75 64 -6 7 -29 24 -51 38 -22 14 -74 48 -115 75 -71
47 -337 184 -357 184 -5 0 -14 5 -20 11 -11 11 -77 37 -149 60 -17 5 -53 20
-78 34 -26 14 -58 25 -71 25 -13 0 -39 6 -57 14 -18 7 -55 20 -83 29 -118 36
-233 69 -265 77 -19 5 -53 13 -75 18 -22 6 -74 15 -115 22 -41 6 -129 20 -195
31 -139 22 -243 31 -265 21z m86 -52 c5 -5 43 -14 84 -19 127 -16 224 -32 258
-42 18 -6 58 -13 90 -16 31 -3 62 -10 69 -15 6 -5 33 -13 60 -18 26 -5 73 -16
103 -24 30 -8 75 -21 100 -27 25 -7 59 -18 77 -25 17 -8 38 -14 47 -14 9 0 24
-4 34 -9 9 -5 44 -19 77 -31 82 -30 135 -50 170 -66 166 -73 222 -100 310
-150 33 -18 69 -38 80 -44 35 -19 134 -82 160 -103 6 -4 24 -18 41 -30 76 -55
259 -226 327 -307 21 -25 54 -69 74 -99 42 -63 153 -280 153 -299 0 -8 6 -28
14 -45 26 -60 36 -139 36 -278 0 -146 -13 -263 -36 -316 -8 -17 -14 -36 -14
-42 0 -16 -82 -194 -113 -246 -16 -26 -124 -172 -157 -210 -59 -70 -205 -207
-285 -267 -16 -12 -35 -27 -41 -33 -14 -12 -29 -23 -124 -85 -41 -27 -79 -53
-85 -57 -13 -11 -106 -67 -125 -76 -8 -4 -33 -18 -55 -30 -91 -52 -232 -120
-325 -157 -70 -27 -117 -48 -153 -66 -16 -8 -34 -14 -40 -14 -7 -1 -30 -9 -52
-20 -53 -26 -68 -25 -104 6 -38 32 -41 76 -8 116 23 28 110 78 134 78 8 0 27
6 41 13 15 8 45 22 67 31 104 46 185 83 205 95 8 5 26 14 40 20 14 5 48 24 75
40 28 17 59 35 70 41 53 28 149 91 160 105 6 7 28 24 50 39 88 58 301 268 314
309 2 7 16 28 30 47 66 89 135 238 150 325 4 23 10 45 14 51 9 16 -19 264 -32
277 -6 6 -11 20 -11 30 0 10 -6 33 -14 50 -8 18 -17 39 -20 47 -8 21 -64 119
-76 133 -5 7 -31 39 -56 72 -126 159 -316 300 -564 417 -58 27 -117 56 -132
64 -14 8 -33 14 -41 14 -9 0 -28 6 -44 14 -51 26 -101 46 -116 46 -8 0 -28 7
-43 15 -16 8 -38 15 -49 15 -11 0 -29 7 -39 15 -11 8 -33 15 -49 15 -15 0 -38
5 -50 12 -12 6 -40 15 -62 19 -95 19 -151 32 -170 40 -11 5 -49 14 -85 20 -62
10 -163 29 -260 49 -25 5 -74 9 -110 10 -36 0 -71 4 -78 8 -10 7 -13 72 -13
293 0 156 0 287 0 292 1 11 105 9 117 -3z"/>
<path d="M3450 7919 l-25 -10 29 -16 c25 -13 30 -13 43 0 16 16 10 37 -10 36
-7 0 -23 -5 -37 -10z"/>
<path d="M5480 7910 c0 -14 39 -32 56 -26 8 3 14 12 14 21 0 11 -10 15 -35 15
-19 0 -35 -4 -35 -10z"/>
<path d="M3355 7897 c-23 -17 -12 -37 21 -37 19 0 24 5 24 25 0 28 -17 32 -45
12z"/>
<path d="M5576 7885 c-3 -9 1 -18 8 -21 18 -7 58 14 51 27 -10 15 -52 10 -59
-6z"/>
<path d="M5660 7850 c0 -17 6 -20 40 -20 29 0 40 -4 40 -15 0 -9 9 -15 25 -15
16 0 25 6 25 15 0 8 -9 15 -20 15 -10 0 -23 6 -27 14 -4 7 -25 16 -45 20 -34
6 -38 5 -38 -14z"/>
<path d="M2684 7846 c-7 -18 61 -106 83 -106 19 0 63 45 63 64 0 22 -38 43
-92 51 -39 6 -49 4 -54 -9z"/>
<path d="M3240 7845 c-14 -7 -33 -16 -43 -19 -10 -3 -15 -10 -12 -16 10 -16
52 -12 59 6 4 11 16 15 38 12 25 -2 34 1 36 15 4 22 -41 23 -78 2z"/>
<path d="M3110 7802 c0 -12 23 -32 37 -32 7 0 13 9 13 20 0 15 -7 20 -25 20
-14 0 -25 -4 -25 -8z"/>
<path d="M5810 7784 c0 -10 7 -14 22 -12 32 5 35 28 4 28 -17 0 -26 -5 -26
-16z"/>
<path d="M5893 7773 c-15 -5 -18 -33 -4 -33 6 0 13 5 16 10 10 16 21 12 35
-15 9 -18 22 -25 42 -25 31 0 38 17 11 27 -10 3 -25 12 -33 18 -19 16 -51 25
-67 18z"/>
<path d="M3025 7759 c-4 -5 -18 -14 -31 -19 -32 -13 -31 -30 2 -30 27 0 53 24
54 48 0 15 -16 16 -25 1z"/>
<path d="M2920 7695 c0 -11 7 -15 23 -13 12 2 22 8 22 13 0 6 -10 11 -22 13
-16 2 -23 -2 -23 -13z"/>
<path d="M6020 7696 c0 -10 9 -16 21 -16 24 0 21 23 -4 28 -10 2 -17 -3 -17
-12z"/>
<path d="M2867 7673 c-13 -12 -7 -23 13 -23 11 0 20 7 20 15 0 15 -21 21 -33
8z"/>
<path d="M6080 7665 c0 -8 7 -15 15 -15 8 0 15 7 15 15 0 8 -7 15 -15 15 -8 0
-15 -7 -15 -15z"/>
<path d="M2807 7643 c-13 -12 -7 -23 13 -23 11 0 20 7 20 15 0 15 -21 21 -33
8z"/>
<path d="M6140 7636 c0 -10 9 -16 21 -16 24 0 21 23 -4 28 -10 2 -17 -3 -17
-12z"/>
<path d="M2750 7605 c0 -9 6 -12 15 -9 8 4 12 10 9 15 -8 14 -24 10 -24 -6z"/>
<path d="M6205 7610 c-8 -13 15 -24 27 -12 6 6 4 11 -6 15 -8 3 -18 2 -21 -3z"/>
<path d="M2677 7570 c-28 -33 -20 -55 9 -25 9 8 24 15 35 15 10 0 19 7 19 15
0 22 -42 19 -63 -5z"/>
<path d="M6240 7580 c0 -6 11 -15 24 -20 13 -5 27 -14 31 -19 8 -14 25 -14 25
-1 0 5 -8 19 -17 30 -18 21 -63 28 -63 10z"/>
<path d="M2600 7530 c0 -11 5 -20 10 -20 6 0 10 9 10 20 0 11 -4 20 -10 20 -5
0 -10 -9 -10 -20z"/>
<path d="M6357 7534 c-14 -15 -6 -34 14 -34 14 0 19 5 17 17 -3 18 -20 27 -31
17z"/>
<path d="M2570 7485 c0 -8 5 -15 10 -15 6 0 10 7 10 15 0 8 -4 15 -10 15 -5 0
-10 -7 -10 -15z"/>
<path d="M6400 7490 c-12 -7 -11 -10 5 -16 11 -4 28 -16 38 -26 10 -10 22 -16
28 -13 14 9 11 35 -5 35 -7 0 -19 7 -26 15 -14 17 -20 18 -40 5z"/>
<path d="M7524 7457 c-21 -23 -91 -88 -154 -142 -63 -55 -126 -110 -140 -123
-14 -13 -42 -32 -62 -43 -35 -18 -38 -23 -38 -64 0 -38 3 -45 20 -45 23 0 51
-27 114 -108 25 -33 64 -79 87 -103 22 -24 71 -77 107 -116 36 -40 71 -73 78
-73 18 0 22 19 16 73 -3 31 -1 47 6 47 6 0 19 14 28 32 14 27 14 37 3 72 -7
23 -18 48 -25 56 -23 29 -19 47 21 83 66 61 104 51 166 -43 25 -38 51 -21 47
32 -3 41 -5 43 -43 50 -30 6 -51 20 -87 60 l-46 51 -40 -41 c-23 -23 -50 -42
-62 -42 -11 0 -23 -7 -26 -15 -11 -27 -71 -39 -133 -25 -31 8 -67 19 -81 25
-14 7 -31 10 -37 8 -26 -9 -12 25 20 50 17 13 46 37 62 53 17 15 68 60 115
100 47 40 92 79 99 88 21 26 47 19 76 -20 l28 -37 -29 -21 c-28 -21 -67 -37
-131 -57 -60 -18 -35 -39 46 -39 26 0 52 -5 59 -12 9 -9 13 -7 18 5 4 12 18
17 42 17 19 0 43 7 52 15 16 14 19 13 35 -12 10 -15 38 -49 63 -74 24 -26 54
-61 65 -78 14 -19 31 -31 45 -31 19 0 22 5 22 44 0 68 -6 76 -55 76 -33 0 -46
5 -58 23 -8 12 -37 45 -64 72 -27 28 -64 70 -83 95 -19 24 -43 53 -52 62 -10
10 -21 36 -24 58 -10 63 -25 66 -70 17z m-249 -437 c49 -44 117 -70 181 -70
l64 0 0 -30 c0 -17 -7 -45 -16 -62 -10 -20 -14 -45 -11 -70 7 -54 -11 -49 -69
19 -58 68 -138 157 -175 193 -14 14 -29 33 -32 43 -6 15 -4 16 16 6 12 -6 31
-20 42 -29z"/>
<path d="M2493 7468 c-11 -13 -18 -29 -16 -35 7 -20 23 -15 23 7 0 11 7 20 15
20 8 0 15 7 15 15 0 21 -13 19 -37 -7z"/>
<path d="M6497 7434 c-12 -12 4 -24 30 -24 21 0 24 2 13 15 -13 16 -32 20 -43
9z"/>
<path d="M2395 7405 c-16 -14 -36 -25 -43 -25 -7 0 -18 -11 -24 -25 -6 -14
-20 -25 -30 -25 -15 0 -18 -5 -13 -20 4 -11 2 -20 -4 -20 -6 0 -11 -7 -11 -15
0 -23 7 -19 58 30 25 25 51 45 57 45 13 0 55 54 55 70 0 16 -12 12 -45 -15z"/>
<path d="M6570 7371 c0 -12 9 -20 28 -24 37 -7 49 7 21 27 -31 21 -49 20 -49
-3z"/>
<path d="M6653 7314 c-4 -11 2 -23 18 -35 29 -23 39 -24 39 -4 0 8 -4 15 -10
15 -5 0 -10 9 -10 20 0 24 -28 27 -37 4z"/>
<path d="M1172 7290 c-19 -11 -32 -26 -30 -33 4 -10 47 -39 96 -63 20 -10 30
6 38 64 l7 52 -39 0 c-22 0 -54 -9 -72 -20z"/>
<path d="M2199 7246 c-6 -13 -21 -27 -32 -30 -12 -3 -19 -8 -16 -11 9 -8 62 5
83 20 16 12 17 17 6 30 -18 21 -29 19 -41 -9z"/>
<path d="M6741 7254 c-11 -13 -10 -17 5 -29 11 -8 23 -15 27 -15 14 0 19 30 7
45 -15 19 -21 18 -39 -1z"/>
<path d="M1328 7228 c-8 -13 -19 -34 -23 -47 -4 -14 -21 -47 -38 -74 -25 -41
-28 -51 -16 -62 18 -18 67 -8 80 16 9 19 24 79 36 152 4 29 2 37 -10 37 -8 0
-21 -10 -29 -22z"/>
<path d="M6800 7190 c0 -17 102 -110 120 -110 6 0 10 7 10 15 0 8 -7 15 -15
15 -8 0 -15 7 -15 15 0 8 -7 15 -15 15 -8 0 -15 7 -15 15 0 8 -6 15 -14 15 -8
0 -16 7 -20 15 -6 17 -36 21 -36 5z"/>
<path d="M7395 7180 c-12 -20 68 -116 87 -104 13 8 10 17 -14 45 -13 14 -28
34 -34 44 -13 23 -30 30 -39 15z"/>
<path d="M2113 7160 c-3 -11 -12 -20 -19 -20 -8 0 -14 -4 -14 -10 0 -10 -36
-50 -45 -50 -9 0 -45 -40 -45 -50 0 -5 -4 -10 -10 -10 -13 0 -50 -37 -50 -50
0 -5 -7 -10 -15 -10 -8 0 -15 -7 -15 -15 0 -8 -7 -15 -15 -15 -8 0 -15 -6 -15
-14 0 -7 -10 -16 -22 -20 -22 -5 -22 -6 -5 -23 16 -17 19 -16 48 17 17 19 46
52 65 74 19 21 34 42 34 47 0 5 5 9 10 9 6 0 28 15 48 34 20 18 52 47 71 64
22 20 32 36 28 46 -9 22 -28 20 -34 -4z"/>
<path d="M1427 7136 c-9 -7 -27 -44 -38 -82 -12 -38 -30 -76 -40 -86 -10 -9
-19 -21 -19 -27 0 -19 74 -80 98 -81 18 0 22 -6 22 -30 0 -17 -7 -41 -16 -55
-20 -30 -4 -65 30 -65 42 0 58 82 30 154 -4 11 -1 16 11 16 9 0 19 -9 22 -20
6 -23 79 -48 95 -32 14 14 -11 49 -44 63 -16 6 -28 15 -28 19 0 4 -13 10 -30
14 -34 6 -40 37 -15 70 24 32 19 49 -12 42 -33 -9 -44 7 -32 48 9 30 4 66 -9
66 -4 0 -15 -7 -25 -14z m28 -194 c5 -12 13 -22 17 -22 5 0 8 -7 8 -15 0 -8
-6 -15 -13 -15 -15 0 -57 53 -57 70 0 20 35 6 45 -18z"/>
<path d="M6946 7074 c-18 -12 -5 -31 13 -19 5 3 11 -2 13 -11 2 -14 5 -15 14
-3 17 22 -17 50 -40 33z"/>
<path d="M1570 7041 c-18 -5 -24 -13 -22 -27 5 -26 12 -32 47 -34 58 -4 65 -1
65 25 0 38 -35 52 -90 36z"/>
<path d="M7000 7004 c0 -4 11 -17 25 -30 14 -13 25 -28 25 -34 0 -5 4 -10 9
-10 5 0 19 -16 31 -35 12 -19 28 -35 35 -35 7 0 16 -8 19 -17 5 -12 9 -14 18
-5 9 9 0 23 -35 57 -26 24 -47 49 -47 55 0 5 -5 10 -10 10 -6 0 -21 11 -34 25
-23 24 -36 31 -36 19z"/>
<path d="M7590 6955 c0 -15 112 -155 124 -155 18 0 27 37 18 80 -7 32 -11 35
-47 38 -21 2 -52 12 -67 23 -15 11 -28 18 -28 14z"/>
<path d="M1771 6830 c-21 -29 -22 -70 -1 -70 12 0 20 28 13 45 -3 9 3 25 12
35 10 11 14 20 8 20 -5 0 -19 -14 -32 -30z"/>
<path d="M7216 6772 c-2 -4 4 -18 14 -31 l18 -24 7 23 c9 27 -24 55 -39 32z"/>
<path d="M1713 6723 c-15 -3 -23 -12 -23 -24 0 -13 -7 -19 -23 -19 -23 0 -54
-37 -41 -48 4 -4 9 -1 11 6 3 6 9 12 15 12 14 0 75 49 82 66 3 7 4 13 3 13 -1
-1 -12 -4 -24 -6z"/>
<path d="M7265 6710 c-5 -9 -4 -15 3 -18 7 -2 12 -10 12 -17 0 -8 12 -20 28
-27 15 -7 31 -23 37 -36 11 -25 25 -29 25 -7 0 8 -4 15 -8 15 -5 0 -17 16 -28
35 -10 19 -23 35 -28 35 -5 0 -14 7 -21 17 -10 13 -14 13 -20 3z"/>
<path d="M1590 6584 c0 -8 -11 -19 -25 -24 -14 -5 -25 -14 -25 -20 0 -16 18
-12 40 10 11 11 27 20 35 20 22 0 18 17 -5 23 -13 3 -20 0 -20 -9z"/>
<path d="M7370 6555 c0 -8 9 -19 20 -25 11 -6 20 -20 20 -30 0 -14 7 -20 24
-20 13 0 26 -7 30 -15 3 -8 12 -15 20 -15 18 0 10 30 -8 30 -6 0 -24 21 -41
45 -29 44 -65 60 -65 30z"/>
<path d="M1518 6502 c-36 -40 -49 -94 -27 -107 16 -10 22 1 23 42 1 31 5 39
24 41 25 4 28 14 9 31 -11 8 -18 7 -29 -7z"/>
<path d="M7500 6426 c0 -9 -7 -16 -15 -16 -8 0 -15 -4 -15 -10 0 -17 25 -11
37 10 8 12 9 21 3 25 -6 3 -10 -1 -10 -9z"/>
<path d="M7521 6386 c-11 -13 -11 -17 3 -22 26 -10 38 -1 23 20 -12 16 -14 16
-26 2z"/>
<path d="M1445 6380 c-8 -13 3 -30 20 -30 11 0 25 20 25 36 0 9 -39 4 -45 -6z"/>
<path d="M1405 6299 c-11 -11 -19 -29 -17 -38 2 -12 -5 -20 -18 -24 -14 -4
-21 -12 -18 -24 6 -33 33 -19 56 30 13 26 28 47 33 47 5 0 9 7 9 15 0 21 -21
18 -45 -6z"/>
<path d="M7530 6317 c0 -12 42 -87 49 -87 5 0 11 -9 14 -21 3 -12 10 -18 16
-14 16 9 13 35 -4 35 -10 0 -15 10 -15 28 0 15 -9 35 -20 45 -18 15 -40 23
-40 14z"/>
<path d="M8349 6267 c-14 -7 -32 -17 -40 -23 -14 -10 -44 -23 -139 -59 -25 -9
-58 -23 -75 -30 -16 -7 -50 -20 -75 -30 -25 -9 -60 -23 -78 -31 -18 -8 -39
-14 -48 -14 -24 0 -74 -29 -74 -44 0 -14 41 -56 55 -56 9 0 83 33 127 56 14 8
33 14 42 14 20 0 21 -24 1 -40 -39 -32 5 -80 72 -80 49 0 67 -12 59 -38 -5
-16 -19 -22 -65 -27 -78 -9 -122 5 -173 54 -24 22 -46 41 -50 41 -5 0 -8 -12
-8 -26 0 -33 77 -115 130 -139 35 -16 48 -17 111 -6 38 6 74 9 80 6 20 -13
-12 -41 -68 -59 -32 -11 -75 -28 -95 -38 -33 -16 -38 -23 -38 -53 0 -43 53
-154 85 -177 22 -17 24 -16 60 12 21 17 46 30 55 30 10 0 23 7 30 15 15 18 5
49 -14 42 -8 -3 -30 -9 -48 -12 -42 -8 -81 24 -76 63 2 21 13 30 53 46 28 10
66 19 84 20 31 1 36 -2 41 -29 9 -42 28 -75 44 -75 16 0 38 69 27 87 -4 8 -18
20 -31 26 -13 7 -35 35 -48 62 -13 28 -30 63 -38 78 -8 16 -14 40 -14 53 0 14
-7 27 -15 30 -22 9 -18 32 13 73 15 20 33 48 40 64 11 25 16 27 66 27 52 0 86
-16 86 -41 0 -12 -27 -12 -35 1 -9 14 -48 13 -63 -2 -7 -7 -12 -22 -12 -35 0
-13 -5 -32 -12 -42 -9 -14 -8 -23 5 -42 10 -13 17 -30 17 -38 0 -8 11 -37 24
-65 13 -28 31 -68 39 -88 16 -39 42 -49 65 -26 9 9 13 7 18 -8 34 -94 48 -104
77 -53 26 46 22 93 -9 114 -23 15 -27 15 -43 1 -10 -9 -21 -16 -25 -16 -15 0
-86 66 -86 80 0 8 -11 38 -25 65 -33 68 -32 75 14 75 33 0 40 -4 45 -25 4 -14
11 -25 16 -25 6 0 10 -10 10 -23 0 -12 6 -32 14 -43 8 -11 16 -30 18 -43 4
-34 28 -39 28 -7 0 18 8 30 28 40 16 8 36 32 46 54 18 39 18 41 0 71 -23 38
-30 39 -48 2 -16 -29 -34 -41 -66 -41 -33 0 -34 100 0 112 5 1 13 26 16 54 6
47 4 53 -15 59 -24 7 -36 42 -28 82 10 52 -10 64 -64 40z m41 -112 c0 -19 -7
-26 -37 -34 -21 -6 -51 -11 -67 -11 -20 0 -41 -13 -74 -45 -66 -65 -122 -72
-130 -16 -3 15 4 24 25 31 15 6 37 14 48 19 11 5 47 20 80 33 33 12 71 28 85
35 42 21 70 17 70 -12z"/>
<path d="M736 6215 c-3 -8 -12 -15 -21 -15 -26 0 -16 -27 20 -54 24 -19 35
-35 35 -53 0 -24 -2 -25 -37 -17 -55 13 -170 11 -184 -2 -13 -14 -3 -54 15
-54 7 0 31 -12 52 -27 79 -56 99 -62 261 -80 106 -11 123 8 130 145 3 79 1 97
-13 113 -36 40 -57 13 -52 -66 1 -22 1 -57 0 -77 -2 -33 -5 -38 -26 -38 -17 0
-26 7 -30 24 -4 15 -17 28 -37 35 -26 9 -30 15 -26 33 15 63 17 96 8 121 -9
23 -16 27 -50 27 -25 0 -41 -5 -45 -15z"/>
<path d="M1330 6175 c-14 -16 -5 -35 16 -35 15 0 20 35 5 44 -5 3 -14 -1 -21
-9z"/>
<path d="M7620 6155 c0 -16 6 -25 15 -25 9 0 15 9 15 25 0 16 -6 25 -15 25 -9
0 -15 -9 -15 -25z"/>
<path d="M1295 6110 c-8 -14 3 -30 21 -30 8 0 14 9 14 20 0 21 -24 28 -35 10z"/>
<path d="M7650 6095 c0 -16 6 -25 15 -25 10 0 15 -10 15 -29 0 -26 14 -41 40
-41 10 0 -17 57 -31 65 -5 4 -9 17 -9 31 0 15 -6 24 -15 24 -9 0 -15 -9 -15
-25z"/>
<path d="M1270 6041 c0 -10 -7 -21 -15 -25 -8 -3 -15 -14 -15 -24 0 -11 -7
-25 -15 -32 -8 -7 -15 -25 -15 -41 0 -40 29 -39 37 1 3 17 10 33 14 36 5 3 9
18 9 34 0 15 7 30 15 34 8 3 15 12 15 21 0 8 -7 15 -15 15 -8 0 -15 -9 -15
-19z"/>
<path d="M7740 5896 c0 -9 7 -16 16 -16 17 0 14 22 -4 28 -7 2 -12 -3 -12 -12z"/>
<path d="M441 5865 c-19 -14 -39 -25 -43 -25 -18 0 -78 -59 -78 -77 0 -20 34
-15 81 12 45 25 105 32 137 16 45 -23 94 -41 111 -41 10 0 25 -7 32 -16 12
-15 10 -20 -16 -38 -41 -30 -75 -67 -75 -82 0 -10 15 -14 51 -14 48 0 53 -3
102 -52 28 -29 56 -62 62 -73 18 -33 115 -41 115 -10 0 17 -29 115 -41 137
-14 27 -12 53 4 40 23 -19 61 -18 65 1 4 19 -43 77 -61 77 -5 0 -29 14 -54 30
-24 17 -48 30 -53 30 -6 0 -38 13 -72 28 -69 31 -116 49 -163 62 -16 5 -39 11
-50 15 -13 4 -32 -3 -54 -20z m344 -173 c37 -26 41 -33 48 -87 4 -33 5 -66 2
-72 -9 -24 -30 -13 -49 27 -10 21 -25 41 -32 44 -8 3 -14 13 -14 23 0 10 -7
31 -15 47 -8 15 -15 32 -15 37 0 17 35 8 75 -19z"/>
<path d="M1172 5868 c-7 -7 -12 -19 -12 -28 0 -9 -11 -49 -25 -89 -26 -73 -26
-91 1 -91 10 0 14 12 14 40 0 28 5 43 16 47 11 4 14 14 10 33 -4 22 -1 29 14
33 24 6 26 32 4 41 -8 3 -12 10 -9 16 8 14 2 13 -13 -2z"/>
<path d="M7776 5843 c-6 -15 30 -61 40 -51 4 5 -24 68 -31 68 -1 0 -6 -7 -9
-17z"/>
<path d="M7800 5740 c0 -5 6 -10 14 -10 8 0 18 5 21 10 3 6 -3 10 -14 10 -12
0 -21 -4 -21 -10z"/>
<path d="M8792 5720 c-17 -7 -20 -13 -13 -27 14 -28 34 -113 37 -162 2 -24 10
-54 18 -66 14 -21 34 -115 41 -190 5 -46 14 -93 23 -115 3 -8 6 -53 7 -100 1
-91 21 -194 36 -184 15 9 10 126 -6 158 -20 37 -19 43 5 51 26 8 27 54 1 87
-25 31 -36 74 -22 82 17 11 13 56 -8 83 -16 19 -19 34 -14 71 5 43 2 51 -26
81 -28 30 -30 35 -15 45 19 14 10 81 -12 90 -10 4 -12 14 -8 31 7 27 -2 75
-14 74 -4 0 -17 -4 -30 -9z"/>
<path d="M7827 5684 c-9 -10 4 -34 19 -34 8 0 14 9 14 20 0 19 -19 27 -33 14z"/>
<path d="M1096 5634 c-11 -29 -6 -64 9 -64 10 0 15 10 15 34 0 38 -14 55 -24
30z"/>
<path d="M7860 5580 c0 -11 7 -20 15 -20 8 0 15 9 15 20 0 11 -7 20 -15 20 -8
0 -15 -9 -15 -20z"/>
<path d="M1067 5543 c-10 -10 -8 -73 2 -73 20 0 31 28 21 54 -10 28 -13 30
-23 19z"/>
<path d="M7885 5500 c-8 -14 3 -30 21 -30 8 0 14 9 14 20 0 21 -24 28 -35 10z"/>
<path d="M1037 5423 c-4 -3 -7 -19 -7 -35 0 -36 25 -38 34 -3 9 36 -7 58 -27
38z"/>
<path d="M7920 5385 c0 -24 5 -35 15 -35 10 0 15 11 15 35 0 24 -5 35 -15 35
-10 0 -15 -11 -15 -35z"/>
<path d="M1000 5271 c0 -52 15 -60 30 -16 12 37 7 55 -16 55 -10 0 -14 -12
-14 -39z"/>
<path d="M7946 5292 c-8 -14 14 -83 25 -77 16 10 11 85 -5 85 -8 0 -17 -4 -20
-8z"/>
<path d="M977 5174 c-4 -4 -7 -30 -7 -58 0 -44 2 -48 14 -36 22 23 29 63 14
83 -8 10 -17 15 -21 11z"/>
<path d="M7977 5143 c-8 -13 7 -84 18 -86 6 -1 11 19 13 46 2 36 0 47 -12 47
-8 0 -17 -3 -19 -7z"/>
<path d="M30 4981 c0 -26 16 -35 24 -15 10 25 7 34 -9 34 -8 0 -15 -9 -15 -19z"/>
<path d="M943 4894 c3 -58 8 -108 10 -111 7 -7 19 55 13 65 -3 5 -2 33 3 62
10 62 5 90 -16 90 -13 0 -15 -16 -10 -106z"/>
<path d="M8013 4969 c-11 -11 -8 -120 4 -169 6 -22 7 -21 14 15 11 54 11 153
1 159 -5 3 -13 1 -19 -5z"/>
<path d="M1 4832 c-1 -47 3 -71 9 -67 12 7 12 79 0 115 -6 18 -8 4 -9 -48z"/>
<path d="M8976 4783 c-3 -3 -6 -152 -6 -330 0 -280 2 -323 15 -323 13 0 15 43
15 324 0 295 -4 349 -24 329z"/>
<path d="M8031 4493 c1 -196 7 -251 30 -238 5 4 9 98 9 226 0 210 -1 219 -19
219 -19 0 -20 -9 -20 -207z"/>
<path d="M910 4499 c0 -146 2 -160 17 -157 15 3 18 19 19 138 1 153 -2 180
-22 180 -11 0 -14 -30 -14 -161z"/>
<path d="M426 4589 c-41 -45 -46 -56 -46 -98 0 -41 5 -53 46 -99 l46 -52 71 0
c60 1 76 5 98 23 73 63 89 136 44 206 -37 60 -59 71 -141 71 l-72 0 -46 -51z"/>
<path d="M8341 4623 c-69 -49 -90 -144 -46 -208 42 -63 65 -75 142 -75 67 0
70 1 108 40 39 40 40 43 40 110 0 67 -1 70 -40 110 -38 39 -40 40 -110 39 -48
0 -77 -5 -94 -16z"/>
<path d="M0 4148 c0 -44 3 -59 10 -48 13 20 13 97 0 105 -6 4 -10 -17 -10 -57z"/>
<path d="M950 4172 c0 -26 4 -41 10 -37 13 8 13 45 0 65 -7 11 -10 3 -10 -28z"/>
<path d="M8018 4194 c-11 -11 -10 -82 1 -89 5 -3 12 -1 15 3 8 13 -8 95 -16
86z"/>
<path d="M940 4056 c0 -48 11 -64 29 -43 14 18 2 87 -15 87 -10 0 -14 -13 -14
-44z"/>
<path d="M8010 4056 c-12 -32 -3 -79 14 -73 14 5 20 77 7 90 -7 7 -14 2 -21
-17z"/>
<path d="M8925 4038 c-10 -34 -19 -118 -16 -159 1 -26 -2 -50 -8 -53 -6 -4
-11 -20 -11 -36 0 -16 -5 -32 -11 -36 -6 -3 -8 -20 -5 -38 3 -17 -1 -49 -9
-71 -8 -22 -14 -55 -15 -74 0 -19 -7 -39 -15 -45 -10 -7 -16 -34 -18 -83 -2
-40 -7 -76 -10 -80 -4 -3 -7 -15 -7 -26 0 -11 -9 -34 -19 -51 -11 -17 -21 -52
-22 -76 -1 -25 -8 -54 -16 -65 -7 -11 -13 -29 -13 -40 0 -11 -7 -29 -15 -39
-8 -11 -15 -30 -15 -42 0 -12 -7 -27 -15 -34 -8 -7 -15 -25 -15 -40 0 -16 -7
-30 -15 -34 -9 -3 -15 -18 -15 -34 0 -16 -7 -35 -15 -42 -8 -7 -15 -23 -15
-36 0 -12 -4 -25 -9 -29 -5 -3 -12 -18 -16 -34 -3 -16 -13 -35 -21 -42 -8 -6
-14 -20 -14 -30 0 -10 -13 -40 -29 -67 -16 -27 -32 -59 -36 -72 -4 -12 -18
-38 -31 -57 -13 -20 -24 -44 -24 -53 0 -10 -7 -24 -16 -31 -9 -7 -26 -36 -39
-65 -12 -28 -28 -55 -34 -58 -6 -4 -11 -15 -11 -25 0 -10 -7 -24 -15 -31 -8
-7 -13 -16 -10 -20 3 -5 -11 -26 -31 -49 -47 -52 -109 -140 -223 -316 -25 -38
-67 -91 -93 -116 -26 -26 -48 -53 -48 -61 0 -7 -10 -20 -21 -28 -12 -8 -27
-21 -33 -28 -6 -7 -22 -26 -36 -42 -14 -16 -38 -47 -55 -68 -16 -22 -54 -56
-82 -77 -29 -21 -53 -41 -53 -44 0 -10 -141 -152 -193 -196 -102 -85 -122
-107 -120 -129 1 -11 0 -15 -3 -8 -10 22 -31 13 -76 -36 -24 -26 -63 -56 -86
-66 -23 -11 -42 -22 -42 -26 0 -5 -35 -29 -77 -56 -43 -26 -115 -74 -161 -106
-45 -32 -85 -58 -89 -58 -4 0 -16 -9 -27 -19 -12 -10 -75 -47 -141 -81 -66
-34 -124 -65 -130 -70 -5 -4 -46 -22 -90 -40 -44 -18 -87 -39 -97 -47 -9 -8
-43 -23 -75 -33 -32 -10 -71 -25 -88 -34 -16 -9 -35 -16 -41 -16 -6 0 -17 -7
-24 -15 -7 -8 -16 -12 -21 -9 -5 3 -30 -4 -55 -15 -26 -12 -54 -21 -63 -21
-10 0 -26 -7 -37 -15 -10 -8 -26 -15 -35 -15 -9 0 -22 -6 -28 -14 -7 -8 -20
-12 -30 -9 -10 3 -38 -4 -62 -15 -24 -11 -60 -23 -79 -27 -84 -16 -141 -39
-138 -54 5 -23 55 -25 86 -4 18 12 41 17 68 15 33 -3 46 1 62 18 16 17 27 20
50 15 20 -4 34 -1 45 9 9 9 31 16 51 16 21 0 38 6 43 15 5 8 23 16 40 18 18 2
40 10 49 18 9 8 26 13 37 11 10 -2 29 6 42 18 16 15 30 20 44 15 14 -4 23 -1
27 9 3 9 16 16 28 16 12 0 31 7 42 15 10 8 26 15 35 15 9 0 24 9 34 20 10 11
28 20 40 20 13 0 28 7 35 15 7 9 21 13 31 10 12 -4 21 -1 25 9 3 9 17 16 30
16 14 0 27 7 30 15 4 8 17 15 30 15 14 0 27 7 30 15 4 8 12 15 20 15 7 0 33
14 57 30 25 17 55 30 66 30 12 0 24 7 27 15 4 8 12 15 20 15 8 0 19 8 25 19 7
10 20 16 30 14 11 -3 22 3 28 16 7 12 21 21 31 21 11 0 20 5 20 10 0 6 7 10
16 10 9 0 18 8 21 19 5 18 41 41 66 41 15 0 57 44 57 60 0 8 8 10 23 6 19 -4
30 2 53 29 16 19 35 35 42 35 21 0 102 61 102 77 0 7 8 13 18 13 10 0 50 30
90 68 39 37 103 94 143 127 39 33 83 76 97 97 15 21 33 38 40 38 6 0 12 7 12
15 0 8 5 15 10 15 14 0 162 149 186 186 24 38 57 74 67 74 12 0 46 42 47 56 0
7 6 14 14 17 7 3 35 34 62 69 26 35 54 67 61 71 7 4 13 16 13 26 0 11 7 21 15
25 8 3 15 10 15 15 0 6 11 22 25 37 18 19 22 31 15 38 -16 16 -12 36 8 36 23
0 62 40 62 63 0 10 7 20 16 24 8 3 20 15 25 27 14 32 33 60 47 69 6 4 12 15
12 24 0 8 14 35 30 60 17 24 30 48 30 54 0 14 32 62 47 72 7 4 13 19 13 31 0
13 7 26 15 30 8 3 15 16 15 30 0 13 7 26 15 30 8 3 15 16 15 30 0 13 7 27 16
30 10 4 13 13 9 26 -4 13 1 25 14 37 12 10 21 28 21 41 0 13 7 30 15 38 8 9
15 26 15 40 0 15 6 24 16 24 12 0 15 7 12 25 -3 16 1 30 13 41 11 10 19 31 19
49 0 20 6 35 15 39 9 3 15 18 15 35 0 16 6 31 15 35 10 3 15 19 15 45 0 25 5
41 15 45 9 3 15 19 15 41 0 20 7 43 15 51 24 24 19 79 -7 93 -22 11 -21 11 6
6 35 -7 46 6 46 56 0 20 7 50 15 65 19 38 19 70 -1 78 -13 5 -10 11 15 32 32
27 41 72 22 103 -7 10 -2 24 15 44 28 33 31 73 8 98 -14 16 -14 20 3 46 10 15
23 34 30 41 21 22 16 70 -7 77 -23 7 -25 32 -5 59 17 22 20 96 5 96 -6 0 -12
-6 -15 -12z"/>
<path d="M35 4011 c-7 -22 0 -41 16 -41 11 0 12 30 0 49 -7 11 -10 9 -16 -8z"/>
<path d="M692 3950 c-18 -24 -32 -30 -60 -30 -20 0 -62 -7 -92 -15 -78 -21
-126 -19 -147 5 -10 11 -23 20 -30 20 -15 0 -18 -46 -3 -55 6 -3 10 -23 10
-43 0 -80 22 -107 42 -51 6 17 21 34 35 40 35 13 93 11 97 -3 2 -7 8 -31 12
-53 10 -44 59 -85 101 -85 29 0 70 30 95 68 19 29 24 102 9 118 -6 5 -11 31
-13 59 -4 60 -22 68 -56 25z m21 -129 c-2 -41 -10 -50 -55 -57 -28 -5 -40 -2
-57 15 -45 45 -14 83 63 79 l51 -3 -2 -34z"/>
<path d="M7983 3890 c-9 -36 -9 -58 -2 -71 23 -45 37 19 20 95 -5 26 -7 24
-18 -24z"/>
<path d="M33 3923 c-21 -8 -16 -77 7 -98 11 -10 20 -26 20 -37 0 -10 7 -18 15
-18 19 0 19 27 0 60 -8 14 -14 39 -15 57 0 34 -7 43 -27 36z"/>
<path d="M977 3894 c-4 -4 -7 -20 -7 -36 0 -23 4 -29 17 -26 10 2 19 10 21 18
3 19 -21 54 -31 44z"/>
<path d="M8490 3890 c-13 -9 -12 -12 5 -25 42 -31 45 -36 45 -98 0 -76 -9 -88
-58 -75 -20 5 -70 13 -111 19 -98 13 -131 31 -131 69 0 39 -27 40 -36 3 -3
-16 -12 -54 -19 -86 -14 -57 -12 -87 6 -87 5 0 15 12 21 26 11 25 14 25 72 19
34 -4 99 -15 146 -25 71 -14 87 -21 97 -41 23 -44 38 -29 44 47 4 39 12 80 17
91 6 11 12 44 14 73 3 48 0 55 -20 66 -13 6 -29 17 -35 23 -14 14 -37 14 -57
1z"/>
<path d="M73 3749 c-30 -11 -31 -66 -3 -99 17 -19 19 -32 14 -77 -6 -43 -3
-57 11 -73 10 -11 24 -20 30 -20 17 0 25 23 15 40 -5 8 -12 41 -15 74 -4 34
-11 66 -15 71 -5 6 -10 29 -12 51 -3 38 -5 41 -25 33z"/>
<path d="M7956 3753 c-3 -3 -6 -21 -6 -40 0 -23 5 -33 15 -33 10 0 15 10 15
34 0 34 -11 52 -24 39z"/>
<path d="M1000 3715 c0 -24 5 -35 14 -35 20 0 25 11 19 43 -8 40 -33 35 -33
-8z"/>
<path d="M766 3662 c-11 -22 -29 -32 -90 -50 -42 -12 -84 -22 -95 -22 -10 0
-35 -7 -56 -16 -33 -14 -39 -14 -61 1 -13 8 -24 20 -24 25 0 6 -7 10 -15 10
-17 0 -21 -46 -4 -52 5 -2 13 -24 16 -48 3 -25 9 -49 13 -55 4 -5 10 -30 14
-55 11 -73 29 -92 84 -88 54 3 65 27 19 39 -16 4 -35 16 -42 26 -12 15 -28 76
-30 106 0 5 18 16 40 24 77 28 81 28 94 -8 16 -48 14 -77 -9 -89 -54 -29 26
-41 85 -13 41 20 46 43 10 43 -16 0 -28 7 -31 18 -3 9 -10 25 -15 34 -22 42
-1 65 62 69 48 4 57 -4 65 -58 5 -35 3 -54 -11 -80 -10 -18 -15 -36 -12 -40 4
-3 25 2 48 12 37 17 40 21 36 49 -9 52 -32 134 -39 142 -4 4 -11 29 -14 56 -7
55 -17 60 -38 20z"/>
<path d="M1036 3623 c-13 -13 -6 -63 9 -63 10 0 15 10 15 29 0 30 -12 46 -24
34z"/>
<path d="M7927 3623 c-14 -13 -7 -63 8 -63 10 0 15 11 15 35 0 33 -8 43 -23
28z"/>
<path d="M8512 3524 c-11 -20 -146 -53 -221 -54 -24 0 -73 -5 -108 -11 -75
-13 -82 -31 -25 -69 20 -14 39 -27 42 -30 3 -3 37 -30 75 -60 105 -82 133
-109 139 -136 11 -44 46 -24 46 27 0 11 5 28 12 38 14 24 3 60 -14 43 -17 -17
-64 -15 -82 4 -21 20 -20 50 3 100 14 31 26 43 47 47 31 6 54 -7 54 -29 0 -26
30 -14 36 14 3 15 12 45 20 66 13 34 13 41 1 54 -13 12 -16 12 -25 -4z m-166
-125 c3 -6 1 -16 -5 -22 -6 -6 -11 -19 -11 -28 0 -30 -14 -29 -55 5 -23 20
-35 37 -31 44 9 15 93 16 102 1z"/>
<path d="M7891 3506 c-7 -8 -10 -20 -6 -26 9 -15 35 -12 35 5 0 8 0 18 1 22 1
14 -18 13 -30 -1z"/>
<path d="M1057 3490 c3 -12 12 -20 22 -18 24 5 19 33 -6 36 -17 3 -20 -1 -16
-18z"/>
<path d="M130 3452 c-18 -15 -21 -24 -16 -49 4 -18 13 -37 21 -43 8 -7 11 -24
9 -48 -6 -50 6 -68 36 -52 14 8 19 17 15 28 -15 38 -36 146 -31 158 8 22 -10
25 -34 6z"/>
<path d="M1092 3383 c2 -20 8 -38 14 -40 15 -5 25 49 12 65 -19 22 -29 13 -26
-25z"/>
<path d="M7860 3404 c0 -15 26 -43 41 -44 3 0 4 14 1 30 -3 21 -10 30 -23 30
-11 0 -19 -7 -19 -16z"/>
<path d="M863 3373 c-7 -3 -13 -13 -13 -24 0 -23 -29 -37 -200 -99 -60 -21
-85 -23 -99 -6 -8 9 -22 16 -32 16 -21 0 -24 -10 -10 -26 5 -5 18 -34 28 -64
21 -60 53 -82 53 -37 0 19 10 30 40 46 43 22 80 27 80 11 0 -5 -13 -31 -28
-57 -16 -26 -31 -56 -35 -65 -4 -11 -17 -18 -32 -18 -16 0 -25 -6 -25 -16 0
-20 29 -114 41 -134 8 -14 31 -62 65 -137 8 -17 14 -36 14 -42 0 -6 7 -11 15
-11 8 0 15 9 15 19 0 28 10 51 23 51 6 0 29 9 51 19 208 98 219 100 224 35 3
-47 -3 -53 -117 -112 -35 -18 -73 -39 -85 -47 -23 -17 -66 -20 -66 -5 0 6 -7
10 -15 10 -20 0 -19 -29 1 -71 38 -78 78 -95 68 -29 -6 36 -4 40 20 46 14 3
26 10 26 14 0 5 10 12 23 16 12 4 24 9 27 13 3 3 20 17 38 30 51 35 58 15 22
-63 -16 -37 -30 -72 -30 -78 0 -5 -16 -42 -36 -83 -20 -41 -33 -79 -29 -84 9
-15 41 -14 57 2 13 13 135 87 144 87 2 0 22 11 44 25 40 25 90 34 90 15 0 -5
7 -10 15 -10 24 0 17 41 -13 85 -37 53 -62 58 -62 13 0 -29 -6 -37 -47 -63
-27 -16 -52 -32 -58 -34 -5 -2 -16 -10 -23 -18 -15 -15 -42 -18 -42 -4 0 11
74 191 96 234 18 36 18 77 -1 101 -8 11 -15 32 -15 48 0 15 -4 28 -9 28 -5 0
-12 12 -15 28 -10 41 -39 92 -53 92 -8 0 -13 -13 -13 -35 0 -32 -4 -36 -57
-61 -32 -15 -86 -40 -120 -56 -81 -39 -119 -33 -129 18 -7 40 2 98 21 134 8
14 24 49 37 77 12 29 28 55 35 57 11 5 71 -20 83 -33 3 -3 22 -15 43 -25 21
-11 43 -28 48 -38 12 -21 37 -24 45 -4 3 8 -4 34 -15 59 -12 25 -21 51 -21 56
0 16 -20 13 -26 -4 -7 -17 -26 -19 -52 -6 -9 5 -39 18 -65 29 -27 10 -49 23
-50 27 -3 11 101 45 118 39 7 -3 16 -12 19 -20 3 -8 10 -14 16 -14 12 0 13 57
1 64 -5 4 -12 24 -16 46 -7 43 -13 50 -32 43z"/>
<path d="M7848 3329 c-10 -5 -18 -15 -18 -21 0 -10 29 -37 41 -38 3 0 5 16 6
35 1 37 -2 40 -29 24z"/>
<path d="M1120 3305 c0 -8 7 -15 15 -15 8 0 15 7 15 15 0 8 -7 15 -15 15 -8 0
-15 -7 -15 -15z"/>
<path d="M8076 3275 c-9 -14 -19 -39 -23 -55 -3 -17 -10 -33 -14 -36 -5 -3 -9
-12 -9 -20 0 -8 -9 -36 -21 -61 -11 -25 -23 -60 -25 -77 -5 -28 -1 -33 35 -49
52 -24 68 -15 41 23 -40 56 -16 115 38 90 40 -18 81 -35 132 -55 86 -32 95
-39 98 -73 2 -18 9 -32 15 -32 14 0 43 51 53 93 3 15 10 30 15 33 5 3 9 14 9
25 0 23 -25 25 -34 3 -5 -13 -15 -15 -54 -9 -26 3 -57 13 -69 21 -12 8 -28 14
-35 14 -7 0 -25 6 -40 14 -15 8 -40 17 -57 21 -60 13 -48 85 14 85 29 0 35 4
35 21 0 13 -11 25 -35 35 -46 19 -50 18 -69 -11z"/>
<path d="M1148 3245 c-7 -8 3 -65 13 -65 4 0 13 8 18 18 14 26 -12 66 -31 47z"/>
<path d="M7800 3244 c0 -8 32 -33 43 -34 4 0 7 9 7 20 0 15 -7 20 -25 20 -14
0 -25 -3 -25 -6z"/>
<path d="M170 3200 c0 -25 6 -42 16 -48 10 -5 15 -23 16 -51 0 -27 6 -45 14
-48 8 -3 14 -19 14 -39 0 -22 6 -37 15 -40 9 -4 15 -19 15 -40 0 -22 6 -37 15
-40 9 -4 15 -19 15 -39 0 -25 5 -35 20 -40 15 -5 18 -12 14 -34 -4 -20 -1 -30
10 -34 9 -4 16 -17 16 -30 0 -13 11 -33 25 -45 15 -13 22 -28 19 -37 -4 -9 1
-24 10 -34 9 -10 14 -25 10 -34 -4 -11 0 -19 10 -23 9 -3 16 -16 16 -29 0 -12
7 -28 15 -35 8 -7 15 -21 15 -32 0 -10 7 -21 15 -24 8 -4 15 -14 15 -24 0 -10
6 -25 13 -32 19 -20 47 -66 47 -78 0 -12 41 -73 53 -78 4 -2 7 -15 7 -28 0
-14 7 -27 15 -30 8 -4 15 -12 15 -18 0 -7 16 -29 35 -50 19 -21 35 -47 35 -57
0 -11 5 -19 10 -19 6 0 10 -7 10 -15 0 -9 7 -18 15 -21 8 -4 15 -13 15 -20 0
-8 7 -17 15 -20 8 -4 15 -15 15 -25 0 -11 7 -22 15 -25 8 -4 15 -12 15 -19 0
-7 9 -15 20 -18 11 -3 20 -13 20 -22 0 -23 60 -105 77 -105 7 0 13 -8 13 -17
0 -10 18 -37 40 -61 22 -24 40 -47 40 -52 0 -6 6 -10 13 -10 13 0 18 -5 81
-85 22 -28 58 -68 80 -91 23 -22 61 -64 86 -92 25 -28 66 -66 91 -83 25 -18
54 -44 64 -59 10 -15 34 -37 54 -51 50 -34 71 -52 71 -62 0 -9 40 -46 51 -47
3 0 27 -20 53 -45 27 -25 54 -45 60 -45 6 -1 22 -14 36 -30 13 -17 32 -30 41
-30 9 0 19 -7 23 -15 3 -8 11 -15 18 -15 7 0 26 -12 42 -27 19 -17 31 -23 34
-15 7 23 30 12 35 -18 5 -22 12 -30 27 -30 11 0 23 -7 26 -15 4 -8 12 -15 20
-15 8 0 14 -4 14 -10 0 -5 20 -19 45 -30 26 -12 45 -27 45 -36 0 -12 7 -15 24
-12 15 3 27 -2 35 -14 6 -10 17 -18 25 -18 8 0 16 -7 20 -15 3 -8 17 -15 31
-15 14 0 25 -4 25 -10 0 -5 7 -10 15 -10 8 0 23 -9 32 -20 10 -11 27 -20 39
-20 12 0 24 -7 28 -15 3 -8 16 -15 30 -15 13 0 26 -7 30 -15 3 -8 16 -15 30
-15 13 0 27 -7 30 -16 4 -10 14 -14 26 -11 14 3 24 -1 31 -14 7 -14 16 -18 30
-14 14 5 27 0 40 -14 11 -12 30 -21 43 -21 13 0 27 -7 30 -16 5 -12 14 -15 35
-11 23 5 30 2 34 -14 4 -15 11 -18 29 -14 17 4 29 0 42 -14 11 -12 31 -21 46
-21 15 0 33 -7 40 -15 7 -8 27 -15 45 -15 20 0 35 -6 39 -15 3 -9 18 -15 39
-15 19 0 40 -7 48 -16 8 -10 23 -14 43 -11 20 3 40 -2 58 -16 20 -15 37 -18
65 -15 29 4 45 1 62 -13 29 -24 77 -25 90 -1 6 9 11 12 11 6 0 -5 9 -20 20
-32 27 -28 70 -29 77 -2 7 25 14 25 35 3 37 -41 63 -54 103 -51 32 2 40 7 40
23 0 16 -8 21 -35 23 -19 2 -39 7 -45 12 -12 9 -85 25 -100 21 -12 -3 -137 27
-188 45 -20 8 -49 14 -62 14 -14 0 -49 8 -78 18 -28 10 -58 17 -65 14 -7 -2
-19 2 -25 10 -16 18 -143 62 -157 53 -5 -3 -13 1 -16 9 -3 9 -15 16 -26 16
-11 0 -31 9 -45 20 -14 11 -35 20 -47 20 -11 0 -41 11 -65 25 -23 14 -49 25
-57 25 -8 0 -32 11 -54 25 -22 14 -48 25 -58 25 -11 0 -31 9 -45 20 -14 11
-36 20 -50 20 -13 0 -30 7 -37 15 -7 8 -16 15 -21 15 -5 0 -28 12 -52 27 -23
15 -60 37 -82 48 -44 22 -192 118 -298 192 -38 26 -90 62 -116 78 -26 17 -62
42 -80 57 -18 16 -38 28 -45 28 -7 0 -34 18 -59 40 -25 22 -50 40 -56 40 -6 0
-11 6 -11 13 0 7 -15 24 -32 37 -18 13 -42 35 -52 48 -11 13 -26 29 -34 36 -9
6 -46 41 -83 79 -37 37 -70 67 -74 67 -3 0 -41 36 -82 80 -42 44 -83 80 -90
80 -7 0 -17 10 -22 23 -5 12 -37 53 -72 92 -35 38 -71 78 -79 88 -8 10 -36 41
-62 68 -27 28 -48 56 -48 63 0 8 -7 19 -16 26 -8 8 -27 34 -41 59 -15 25 -34
53 -44 61 -10 8 -36 48 -59 88 -22 40 -57 93 -75 118 -19 25 -35 50 -35 56 0
6 -11 26 -25 44 -14 18 -25 37 -25 43 0 5 -7 17 -16 25 -22 22 -127 231 -144
286 -7 25 -24 59 -37 77 -13 17 -23 41 -23 52 0 11 -4 23 -10 26 -5 3 -10 15
-10 26 0 10 -9 28 -20 39 -11 11 -20 28 -20 39 0 10 -7 24 -15 31 -8 7 -15 21
-15 32 0 11 -6 34 -14 51 -7 18 -19 46 -26 62 -7 17 -14 40 -16 52 -1 12 -12
49 -25 82 -16 45 -27 61 -40 61 -15 0 -19 -8 -19 -40z"/>
<path d="M7793 3176 c-24 -11 -29 -31 -14 -54 6 -11 10 -11 18 0 9 12 27 70
21 67 -2 -1 -13 -6 -25 -13z"/>
<path d="M1176 3161 c-9 -14 5 -42 18 -38 18 6 20 47 2 47 -8 0 -17 -4 -20 -9z"/>
<path d="M1206 3084 c-9 -24 -8 -26 14 -14 11 6 20 15 20 20 0 16 -27 11 -34
-6z"/>
<path d="M7740 3092 c0 -13 36 -43 42 -36 12 11 -5 44 -23 44 -11 0 -19 -4
-19 -8z"/>
<path d="M1210 3041 c0 -6 5 -13 11 -16 5 -4 14 -18 19 -31 5 -13 14 -24 20
-24 17 0 11 46 -8 63 -20 19 -42 22 -42 8z"/>
<path d="M7709 3013 c-1 -10 -1 -23 0 -29 1 -7 -5 -14 -14 -18 -20 -7 -20 -46
0 -46 9 0 15 9 15 24 0 13 7 26 15 30 8 3 15 17 15 31 0 29 -29 36 -31 8z"/>
<path d="M7940 2958 c-1 -7 -9 -31 -20 -53 -11 -22 -19 -45 -20 -52 0 -20 20
-26 38 -10 19 17 27 14 200 -70 63 -30 72 -38 72 -62 0 -15 3 -31 7 -34 9 -9
53 32 53 49 0 8 9 31 21 53 11 22 18 45 14 51 -9 15 -32 12 -39 -5 -8 -22 -37
-18 -102 14 -33 15 -85 39 -116 51 -42 17 -61 31 -70 52 -13 28 -38 39 -38 16z"/>
<path d="M1270 2940 c0 -11 7 -20 15 -20 8 0 15 9 15 20 0 11 -7 20 -15 20 -8
0 -15 -9 -15 -20z"/>
<path d="M1302 2883 c5 -25 28 -28 28 -4 0 12 -6 21 -16 21 -9 0 -14 -7 -12
-17z"/>
<path d="M7652 2883 c5 -25 28 -28 28 -4 0 12 -6 21 -16 21 -9 0 -14 -7 -12
-17z"/>
<path d="M7627 2843 c-4 -3 -7 -15 -7 -25 0 -21 25 -24 33 -4 6 16 -16 40 -26
29z"/>
<path d="M1332 2818 c2 -13 8 -23 13 -23 6 0 11 10 13 23 2 15 -2 22 -13 22
-11 0 -15 -7 -13 -22z"/>
<path d="M7596 2783 c-12 -12 -6 -33 9 -33 8 0 15 6 15 14 0 17 -14 28 -24 19z"/>
<path d="M1357 2774 c-8 -8 1 -24 14 -24 5 0 9 7 9 15 0 15 -12 20 -23 9z"/>
<path d="M7875 2758 c-28 -16 -41 -34 -80 -114 -46 -93 -47 -127 -3 -87 17 15
21 15 61 -4 23 -12 82 -40 130 -63 81 -39 88 -45 84 -67 -5 -27 17 -43 34 -26
6 6 23 38 39 72 25 52 27 63 14 68 -8 3 -23 -2 -34 -12 -19 -17 -22 -17 -67 3
-55 24 -63 41 -34 78 66 84 -50 206 -144 152z m97 -91 c22 -27 22 -46 3 -75
l-16 -22 -52 28 c-41 21 -53 33 -55 55 -3 21 2 29 20 37 33 14 80 3 100 -23z"/>
<path d="M1390 2714 c0 -27 24 -53 48 -54 17 0 15 27 -3 34 -8 3 -15 15 -15
26 0 11 -7 20 -15 20 -10 0 -15 -10 -15 -26z"/>
<path d="M7552 2704 c-9 -30 -8 -35 5 -30 8 3 19 6 24 6 5 0 9 14 9 30 0 42
-24 38 -38 -6z"/>
<path d="M1420 2611 c0 -6 11 -22 24 -36 l25 -27 23 22 23 23 -24 -6 c-17 -4
-24 -1 -28 14 -5 19 -43 28 -43 10z"/>
<path d="M7520 2604 c0 -17 22 -14 28 4 2 7 -3 12 -12 12 -9 0 -16 -7 -16 -16z"/>
<path d="M7489 2569 c12 -12 25 -19 28 -15 7 7 -23 36 -38 36 -7 0 -3 -9 10
-21z"/>
<path d="M1500 2525 c-9 -11 -10 -19 -3 -26 16 -16 55 -1 51 19 -4 23 -32 26
-48 7z"/>
<path d="M7423 2498 c-12 -24 -24 -51 -27 -61 -4 -11 -15 -21 -26 -24 -25 -7
-25 -15 0 -31 18 -11 21 -9 30 12 5 14 19 35 30 46 12 12 19 28 16 35 -2 7 4
15 16 18 12 4 18 12 16 24 -6 34 -33 25 -55 -19z"/>
<path d="M7710 2508 c0 -7 -16 -31 -35 -52 -30 -34 -35 -46 -35 -90 0 -70 29
-98 101 -98 29 0 57 6 67 14 35 31 110 59 136 52 22 -5 26 -12 26 -43 0 -55
-32 -81 -98 -81 -29 0 -52 -4 -52 -9 0 -4 19 -21 43 -37 23 -16 44 -32 45 -36
7 -16 32 -7 32 12 0 10 12 32 28 48 71 73 81 127 33 180 -49 53 -73 57 -142
22 -33 -16 -69 -36 -82 -45 -31 -22 -74 -19 -87 5 -15 27 -5 55 28 80 20 17
34 20 64 15 34 -6 38 -5 38 14 0 12 -5 21 -11 21 -6 0 -22 9 -36 20 -29 22
-63 27 -63 8z"/>
<path d="M1520 2474 c0 -9 64 -104 70 -104 4 0 15 7 26 16 14 11 15 17 6 21
-7 2 -19 11 -26 19 -8 8 -19 14 -25 14 -6 0 -16 9 -23 20 -12 19 -28 27 -28
14z"/>
<path d="M1150 2432 c-61 -29 -100 -62 -120 -102 -39 -77 -18 -171 55 -242 67
-65 77 -67 131 -19 45 39 86 52 99 31 3 -5 10 -10 16 -10 18 0 8 33 -21 70
-16 21 -30 42 -30 48 0 8 -22 22 -35 22 -2 0 -5 -14 -7 -31 -2 -23 -14 -39
-49 -65 l-46 -34 -33 30 c-26 24 -34 39 -38 78 -4 42 0 53 30 92 43 57 115 95
163 86 19 -4 47 -20 63 -36 38 -37 47 -82 26 -127 -25 -52 -5 -65 43 -27 52
42 62 60 41 76 -10 7 -28 34 -42 60 -31 59 -56 83 -102 103 -46 19 -99 18
-144 -3z"/>
<path d="M1628 2353 c-24 -6 -23 -15 5 -41 20 -19 47 -29 47 -19 0 6 -31 67
-33 66 -1 -1 -10 -3 -19 -6z"/>
<path d="M7330 2340 c0 -5 -8 -10 -19 -10 -18 0 -51 -38 -51 -60 0 -5 7 -10
15 -10 8 0 15 7 15 15 0 8 7 15 16 15 9 0 18 9 21 20 3 11 12 20 19 20 8 0 14
5 14 10 0 6 -7 10 -15 10 -8 0 -15 -4 -15 -10z"/>
<path d="M1684 2285 c-10 -24 -1 -33 25 -24 19 8 21 12 11 24 -16 19 -29 19
-36 0z"/>
<path d="M1720 2235 c-10 -12 -4 -25 32 -71 42 -56 68 -77 68 -55 0 6 -14 26
-31 46 -20 22 -29 41 -25 51 6 16 -9 44 -24 44 -4 0 -13 -7 -20 -15z"/>
<path d="M7222 2228 c-7 -7 -12 -20 -12 -30 0 -10 -7 -18 -16 -18 -16 0 -114
-98 -114 -115 0 -15 38 -36 45 -25 3 5 1 11 -5 15 -15 9 -12 25 5 25 8 0 15 7
15 15 0 8 6 15 13 15 6 1 21 13 32 27 11 14 34 40 52 56 31 29 35 47 9 47 -6
0 -17 -5 -24 -12z"/>
<path d="M7526 2223 c-67 -35 -101 -91 -99 -165 1 -49 6 -64 34 -100 40 -52
53 -63 101 -88 110 -59 257 28 258 153 1 142 -175 262 -294 200z m114 -63 c21
-11 57 -37 80 -58 36 -36 40 -43 40 -90 0 -44 -4 -53 -31 -76 -37 -32 -75 -33
-130 -4 -115 59 -152 163 -81 226 31 27 71 28 122 2z"/>
<path d="M1520 2110 c0 -11 5 -20 10 -20 23 0 7 -31 -37 -72 -175 -161 -163
-147 -163 -199 0 -40 6 -55 40 -98 42 -53 84 -73 136 -63 27 5 124 73 189 134
34 32 56 35 79 12 23 -22 20 -56 -6 -78 -13 -11 -58 -53 -100 -94 -65 -63 -80
-73 -93 -62 -8 7 -22 10 -30 6 -20 -7 -9 -30 41 -80 47 -47 67 -48 58 -1 -6
33 -2 40 61 111 43 47 71 72 77 66 6 -6 2 -68 -11 -166 -19 -141 -19 -186 -3
-186 3 0 59 54 124 121 81 81 124 119 134 115 9 -3 24 -6 34 -6 30 0 34 -36 9
-73 -36 -51 -149 -181 -166 -190 -9 -6 -19 -5 -26 2 -17 17 -27 13 -27 -9 0
-10 10 -24 21 -31 12 -6 35 -23 51 -37 39 -35 73 -49 64 -26 -20 53 -18 58 69
167 94 117 113 127 155 82 23 -24 23 -28 11 -78 -6 -28 -19 -83 -28 -122 -8
-38 -23 -96 -33 -127 -14 -45 -15 -61 -6 -73 10 -14 15 -13 49 9 21 14 40 26
42 26 7 0 157 92 190 116 49 36 87 39 114 10 l23 -24 -64 -124 c-53 -102 -68
-124 -88 -126 -69 -8 -62 -22 37 -72 37 -19 70 -37 73 -40 20 -19 92 -49 106
-43 25 9 52 39 56 60 3 18 -1 19 -63 6 -38 -7 -119 32 -119 58 0 15 32 92 45
107 1 1 17 -4 36 -12 36 -15 66 -56 55 -75 -4 -7 1 -11 13 -11 14 0 27 15 45
49 20 42 22 52 12 67 -13 17 -14 16 -24 -3 -11 -20 -13 -20 -56 -6 -25 8 -47
21 -50 29 -6 15 28 84 47 96 13 8 33 0 72 -26 38 -27 45 -36 45 -63 0 -34 23
-28 44 12 15 27 16 38 7 49 -11 13 -210 116 -225 116 -7 0 -67 40 -76 51 -3 3
-20 14 -38 23 l-34 18 6 -29 c7 -34 2 -43 -49 -73 -22 -13 -56 -36 -76 -52
-65 -49 -85 -31 -55 49 8 21 17 55 20 77 6 47 32 79 58 70 23 -7 23 11 1 31
-10 9 -67 52 -128 97 -60 44 -111 85 -113 89 -2 5 -9 9 -16 9 -6 0 -30 18 -51
40 -51 52 -69 53 -61 3 6 -36 3 -42 -59 -107 -35 -38 -68 -67 -71 -63 -4 4 -2
39 4 79 6 40 14 112 17 159 l6 85 -53 50 c-30 27 -61 60 -70 73 -22 31 -53 22
-44 -13 5 -20 -3 -32 -48 -71 -93 -80 -130 -104 -159 -105 -36 0 -74 25 -93
61 -13 26 -13 32 0 57 8 16 30 40 48 55 18 14 55 46 83 71 27 26 54 46 59 46
5 0 18 -8 28 -17 16 -14 21 -15 28 -4 12 20 4 36 -46 89 -24 26 -44 50 -44 54
0 5 -7 8 -15 8 -8 0 -15 -9 -15 -20z"/>
<path d="M1837 2113 c-14 -13 -7 -45 7 -40 8 3 20 -1 27 -9 21 -25 33 1 14 30
-17 25 -35 33 -48 19z"/>
<path d="M1908 2032 c-7 -24 13 -49 35 -44 10 2 17 -3 17 -12 0 -9 7 -16 16
-16 11 0 15 -6 11 -20 -4 -17 -2 -18 14 -9 23 12 25 29 4 29 -8 0 -15 7 -15
15 0 8 -7 15 -15 15 -8 0 -15 5 -15 10 0 9 -36 50 -44 50 -2 0 -6 -8 -8 -18z"/>
<path d="M7047 2023 c-7 -38 1 -48 24 -27 14 13 16 21 8 35 -14 27 -26 24 -32
-8z"/>
<path d="M7290 1955 c-41 -43 -50 -59 -41 -68 8 -8 16 -9 29 0 13 8 24 8 37 0
21 -11 75 -65 75 -73 0 -3 -21 -30 -47 -58 l-48 -53 -33 25 c-38 29 -67 78
-52 87 14 9 12 35 -3 35 -20 0 -120 -107 -112 -119 4 -7 19 -9 38 -6 30 6 40
-1 137 -93 85 -81 103 -103 93 -113 -7 -7 -13 -21 -13 -31 0 -27 36 -5 94 58
42 46 46 55 31 60 -10 4 -27 2 -37 -5 -18 -11 -25 -9 -56 16 -66 54 -67 61
-11 121 l49 54 43 -38 c50 -45 61 -68 42 -84 -8 -7 -12 -16 -9 -21 10 -17 34
-9 61 23 16 17 38 40 51 51 31 29 28 37 -18 37 -34 0 -48 8 -97 52 -67 60
-113 106 -132 131 -11 13 -11 20 -1 32 11 14 6 35 -9 35 -4 0 -31 -25 -61 -55z"/>
<path d="M7007 1960 c4 -14 0 -20 -11 -20 -9 0 -16 5 -16 11 0 5 -4 8 -10 4
-5 -3 -2 -14 7 -25 16 -19 17 -19 42 6 21 21 23 27 11 35 -23 14 -29 11 -23
-11z"/>
<path d="M2030 1915 c0 -8 5 -15 10 -15 6 0 10 -7 10 -15 0 -8 7 -15 15 -15 8
0 15 -8 15 -19 0 -19 32 -57 69 -81 13 -8 34 -26 47 -40 22 -23 25 -24 41 -7
16 16 16 18 -2 32 -11 8 -35 17 -52 21 -18 3 -33 10 -33 15 0 5 -11 14 -25 21
-20 9 -23 14 -13 31 8 16 7 23 -8 34 -11 8 -29 23 -42 33 -27 24 -32 25 -32 5z"/>
<path d="M6930 1915 c0 -8 -6 -15 -12 -15 -24 -1 -91 -68 -85 -85 9 -22 37
-19 37 5 0 11 7 20 15 20 8 0 15 7 15 15 0 17 16 20 26 4 4 -8 9 -8 18 1 8 8
7 13 -4 21 -11 8 -12 12 -2 16 14 6 16 33 2 33 -5 0 -10 -7 -10 -15z"/>
<path d="M6795 1770 c-3 -5 -11 -7 -18 -5 -17 6 -50 -21 -42 -34 10 -18 38
-12 68 14 15 13 27 27 27 30 0 9 -28 6 -35 -5z"/>
<path d="M2260 1706 c0 -10 9 -16 21 -16 24 0 21 23 -4 28 -10 2 -17 -3 -17
-12z"/>
<path d="M6681 1696 c-10 -24 -71 -66 -97 -66 -8 0 -14 -6 -14 -13 0 -8 -9
-22 -20 -32 -20 -18 -27 -45 -12 -45 5 0 18 10 29 23 36 38 77 69 104 79 29
10 55 50 45 67 -11 18 -26 13 -35 -13z"/>
<path d="M2302 1659 c3 -23 33 -48 44 -37 7 7 -27 57 -39 58 -5 0 -7 -10 -5
-21z"/>
<path d="M6952 1630 c-45 -41 -48 -66 -6 -56 26 7 29 4 102 -79 68 -79 56 -87
-83 -50 -27 8 -70 18 -95 24 -25 5 -54 12 -65 15 -14 5 -32 -5 -65 -34 -25
-22 -54 -43 -65 -46 -11 -4 -22 -10 -25 -13 -3 -4 -23 -18 -45 -31 -22 -13
-42 -27 -45 -30 -3 -3 -23 -17 -45 -30 -22 -14 -49 -34 -60 -46 -20 -21 -103
-64 -124 -64 -6 0 -11 -9 -11 -20 0 -15 7 -20 29 -20 24 0 32 -8 54 -50 l26
-50 -26 -20 c-14 -11 -31 -20 -38 -20 -7 0 -18 -7 -25 -15 -19 -23 -49 -14
-67 20 -35 66 -35 66 -17 86 14 15 15 22 6 31 -10 10 -23 7 -60 -12 -81 -42
-104 -70 -59 -70 12 0 27 -4 34 -8 6 -4 39 -63 73 -130 61 -120 62 -124 44
-143 -15 -17 -16 -22 -5 -29 14 -8 110 37 140 66 16 15 8 20 -39 26 -14 2 -30
13 -36 26 -6 13 -17 29 -23 35 -26 26 -12 52 47 80 31 15 62 27 67 27 12 0 55
-88 55 -113 0 -10 -7 -20 -15 -23 -18 -7 -20 -34 -3 -34 15 0 136 59 143 70 7
11 -15 25 -39 25 -14 0 -33 27 -73 105 -30 58 -58 109 -64 115 -25 26 13 95
53 95 13 0 118 -139 118 -155 0 -3 14 -24 31 -47 26 -37 28 -44 15 -54 -16
-11 -21 -36 -10 -47 4 -3 31 12 62 33 30 22 61 40 69 40 7 0 13 3 13 8 0 4 23
20 51 36 l51 29 -5 50 c-4 27 -9 52 -11 55 -13 12 -36 -10 -36 -35 -1 -31 -20
-57 -67 -90 -39 -28 -61 -29 -70 -5 -4 9 -17 31 -30 48 -30 41 -29 46 11 68
25 13 45 17 70 12 29 -6 36 -4 36 9 0 19 -26 61 -56 93 -19 19 -23 20 -28 6
-3 -8 -6 -26 -6 -38 0 -23 -32 -58 -62 -69 -13 -5 -24 5 -43 37 -14 23 -25 48
-25 54 0 7 18 24 40 38 33 22 47 25 80 20 35 -5 40 -4 40 13 0 11 -4 23 -10
26 -17 11 -11 23 18 33 38 13 52 4 110 -76 27 -37 55 -74 63 -82 35 -38 39
-46 29 -79 -14 -51 11 -49 69 7 52 50 63 72 36 72 -8 0 -15 -4 -15 -10 0 -21
-48 -10 -64 14 -8 14 -38 49 -65 78 -58 62 -54 78 17 59 26 -7 72 -19 102 -26
30 -7 82 -20 115 -28 33 -9 63 -13 67 -11 16 10 7 36 -20 62 -16 15 -51 56
-78 92 -26 36 -59 76 -71 90 -23 25 -31 70 -13 70 6 0 10 7 10 15 0 28 -44 15
-88 -25z"/>
<path d="M2387 1623 c-15 -14 -6 -43 20 -63 37 -29 49 -11 21 33 -24 37 -30
42 -41 30z"/>
<path d="M6470 1548 c-14 -5 -28 -16 -33 -24 -4 -8 -17 -14 -27 -14 -11 0 -20
-7 -20 -15 0 -25 43 -17 76 13 17 15 37 26 45 24 9 -2 10 0 4 5 -5 4 -12 11
-15 14 -3 4 -16 2 -30 -3z"/>
<path d="M2495 1533 c-11 -10 -13 -19 -7 -25 14 -14 46 -5 50 13 4 23 -24 31
-43 12z"/>
<path d="M6360 1450 c0 -11 5 -20 10 -20 6 0 10 9 10 20 0 11 -4 20 -10 20 -5
0 -10 -9 -10 -20z"/>
<path d="M2592 1448 c6 -18 28 -21 28 -4 0 9 -7 16 -16 16 -9 0 -14 -5 -12
-12z"/>
<path d="M2660 1438 c1 -24 27 -48 54 -48 34 0 35 26 1 34 -14 4 -25 11 -25
16 0 6 -7 10 -15 10 -8 0 -15 -6 -15 -12z"/>
<path d="M6273 1425 c-41 -18 -42 -35 -3 -35 19 0 33 7 40 19 19 36 13 38 -37
16z"/>
<path d="M6205 1379 c-10 -15 1 -23 20 -15 9 3 13 10 10 16 -8 13 -22 13 -30
-1z"/>
<path d="M2802 1343 c2 -10 10 -18 18 -18 8 0 16 8 18 18 2 12 -3 17 -18 17
-15 0 -20 -5 -18 -17z"/>
<path d="M6130 1344 c0 -11 8 -14 27 -12 39 4 42 28 4 28 -21 0 -31 -5 -31
-16z"/>
<path d="M2860 1315 c0 -8 9 -15 20 -15 11 0 20 7 20 15 0 8 -9 15 -20 15 -11
0 -20 -7 -20 -15z"/>
<path d="M6080 1315 c0 -8 9 -15 20 -15 11 0 20 7 20 15 0 8 -9 15 -20 15 -11
0 -20 -7 -20 -15z"/>
<path d="M2917 1293 c-15 -14 -6 -23 23 -23 19 0 30 -5 30 -14 0 -19 30 -29
46 -15 18 15 8 29 -21 29 -12 0 -25 7 -29 15 -5 15 -37 21 -49 8z"/>
<path d="M5988 1269 c-32 -35 -18 -50 20 -22 15 11 35 22 45 26 10 4 15 11 12
17 -11 18 -50 8 -77 -21z"/>
<path d="M3067 1222 c-24 -26 -22 -29 23 -37 22 -4 42 -11 46 -16 10 -16 24
-10 24 11 0 15 -7 20 -26 20 -17 0 -28 6 -31 20 -7 25 -15 25 -36 2z"/>
<path d="M5880 1220 c0 -13 7 -20 20 -20 18 0 19 3 10 20 -6 11 -15 20 -20 20
-6 0 -10 -9 -10 -20z"/>
<path d="M5805 1190 c-10 -11 -15 -23 -12 -26 7 -8 46 2 67 16 13 9 13 11 0
20 -22 14 -35 12 -55 -10z"/>
<path d="M3203 1183 c-18 -7 -16 -33 1 -33 8 0 21 -3 30 -6 11 -4 16 0 16 14
0 15 -22 36 -33 31 -1 0 -8 -3 -14 -6z"/>
<path d="M5730 1155 c0 -18 5 -25 20 -25 23 0 24 4 10 31 -15 27 -30 24 -30
-6z"/>
<path d="M3290 1136 c0 -7 11 -21 25 -30 28 -18 29 -18 15 18 -10 27 -40 36
-40 12z"/>
<path d="M5644 1139 c-8 -14 4 -25 37 -33 35 -8 42 1 18 25 -21 21 -44 25 -55
8z"/>
<path d="M5566 1114 c-9 -8 -16 -22 -16 -29 0 -12 5 -12 25 -3 25 11 33 32 16
43 -5 3 -17 -2 -25 -11z"/>
<path d="M3380 1105 c0 -8 -7 -15 -15 -15 -8 0 -15 -4 -15 -9 0 -5 18 -8 40
-7 45 1 44 0 30 27 -13 23 -40 26 -40 4z"/>
<path d="M3477 1094 c-14 -15 -6 -34 14 -34 14 0 19 5 17 17 -3 18 -20 27 -31
17z"/>
<path d="M5472 1087 c-14 -16 -6 -27 20 -27 13 0 18 6 16 17 -4 22 -22 27 -36
10z"/>
<path d="M2844 1068 c-4 -6 0 -16 9 -23 25 -18 21 -35 -28 -141 -25 -52 -45
-99 -45 -103 0 -17 -48 -51 -63 -45 -10 3 -17 2 -17 -4 0 -23 13 -42 29 -42 9
0 33 -9 54 -20 21 -11 42 -18 47 -15 14 9 12 33 -2 37 -8 3 -8 16 3 52 22 74
69 102 69 40 0 -14 4 -44 9 -67 6 -23 12 -58 16 -77 4 -28 13 -40 45 -58 22
-13 45 -20 50 -17 14 9 12 31 -4 44 -17 14 -59 148 -52 166 2 7 20 15 38 19
48 9 74 30 81 66 12 58 -26 109 -110 149 -26 12 -60 29 -75 37 -32 17 -45 18
-54 2z m153 -100 c35 -28 13 -107 -30 -110 -75 -5 -89 4 -71 48 35 83 58 97
101 62z"/>
<path d="M3567 1063 c-18 -17 -5 -33 28 -33 41 0 46 16 9 30 -30 12 -29 12
-37 3z"/>
<path d="M5373 1063 c-38 -7 -28 -33 13 -33 28 0 35 4 32 17 -3 19 -13 22 -45
16z"/>
<path d="M6005 1025 c-27 -13 -76 -35 -107 -50 -51 -22 -58 -29 -58 -54 0 -31
38 -87 51 -74 4 4 9 23 11 42 3 30 10 39 52 63 62 37 72 28 53 -48 -34 -131
-60 -305 -48 -317 9 -9 80 21 221 92 l55 28 -3 44 c-3 47 -22 76 -42 64 -6 -4
-9 -16 -7 -27 10 -36 -13 -63 -80 -95 -37 -18 -69 -31 -71 -28 -5 4 2 41 34
200 7 39 15 95 16 125 4 66 -5 70 -77 35z"/>
<path d="M3686 1033 c-18 -19 -4 -33 34 -33 36 0 53 12 33 23 -18 10 -60 16
-67 10z"/>
<path d="M5242 1032 c-38 -11 -30 -27 16 -30 38 -3 43 -1 40 15 -4 20 -21 25
-56 15z"/>
<path d="M3837 1004 c-17 -17 -5 -34 23 -34 20 0 30 5 30 15 0 8 -4 15 -9 15
-5 0 -16 2 -23 5 -8 3 -17 2 -21 -1z"/>
<path d="M5103 1003 c-26 -10 -13 -33 18 -33 24 0 30 4 27 17 -3 18 -24 26
-45 16z"/>
<path d="M4011 967 c-6 -8 -8 -17 -4 -20 9 -9 153 -7 177 2 29 11 4 22 -46 19
-24 -2 -59 1 -79 5 -26 5 -39 3 -48 -6z"/>
<path d="M4912 972 c-38 -11 -25 -27 21 -27 31 0 42 4 42 15 0 17 -28 22 -63
12z"/>
<path d="M4775 960 c-4 -6 10 -10 35 -10 25 0 39 4 35 10 -3 6 -19 10 -35 10
-16 0 -32 -4 -35 -10z"/>
<path d="M4294 937 c-37 -21 10 -27 196 -27 186 0 228 6 206 28 -10 9 -385 8
-402 -1z"/>
<path d="M5760 934 c-14 -7 -32 -14 -41 -14 -21 0 -53 -36 -44 -49 3 -6 17
-11 31 -11 17 0 28 -8 36 -27 6 -16 17 -44 25 -63 8 -19 18 -43 23 -52 28 -51
-1 -50 -82 4 -71 48 -96 64 -118 74 -8 4 -25 15 -38 25 -25 19 -80 16 -94 -4
-3 -6 -41 -11 -85 -12 -48 -1 -89 -8 -108 -18 -16 -9 -61 -18 -98 -21 -38 -2
-71 -7 -74 -10 -4 -3 -28 -6 -54 -6 -80 0 -107 -25 -51 -46 21 -8 31 -20 35
-44 7 -32 9 -89 5 -91 -2 0 -35 -2 -75 -5 l-71 -5 -7 54 c-6 48 -4 58 14 76
12 12 21 28 21 36 0 16 -25 21 -35 6 -3 -5 -34 -13 -70 -16 -68 -8 -82 -19
-41 -35 31 -11 43 -50 56 -172 5 -54 10 -101 11 -105 4 -25 -3 -42 -21 -48
-11 -3 -20 -13 -20 -22 0 -12 7 -14 33 -10 125 22 152 31 142 48 -4 5 -15 9
-26 9 -24 0 -49 53 -49 104 0 39 14 46 92 46 53 0 66 -13 70 -73 2 -29 -4 -43
-27 -67 -25 -26 -26 -30 -10 -36 9 -4 32 -2 49 4 18 7 44 12 58 12 37 0 58 10
58 26 0 8 -10 14 -25 14 -14 0 -27 6 -29 13 -17 62 -37 203 -34 247 l3 55 34
0 c27 1 38 -5 52 -30 11 -16 22 -46 25 -65 3 -19 12 -55 19 -80 27 -90 26
-140 -1 -140 -8 0 -14 -7 -14 -16 0 -18 15 -17 130 10 169 39 170 39 170 107
0 61 -19 65 -44 9 -12 -28 -25 -42 -44 -46 -15 -3 -37 -10 -48 -16 -40 -19
-58 -7 -72 51 -7 29 -11 60 -8 67 8 20 86 18 115 -2 26 -19 52 -5 34 18 -6 7
-14 31 -18 53 -10 58 -14 60 -48 20 -19 -21 -45 -38 -64 -41 -29 -6 -34 -3
-44 22 -6 16 -13 43 -16 59 -5 29 -3 31 41 43 61 16 93 15 100 -3 8 -21 23
-19 31 4 3 10 15 21 25 24 40 10 57 -3 75 -61 10 -31 29 -88 43 -126 20 -55
23 -73 13 -87 -6 -10 -11 -28 -11 -39 0 -21 14 -27 25 -11 3 5 20 13 38 16 63
14 93 65 37 65 -20 0 -33 6 -36 18 -10 30 -35 86 -50 114 -14 26 -19 68 -9 68
4 0 33 -18 66 -40 33 -22 63 -40 66 -40 7 0 115 -72 131 -87 16 -15 38 -17 47
-4 5 9 0 26 -31 96 -7 17 -22 59 -33 95 -11 36 -26 79 -32 96 -11 27 -10 36 5
58 9 15 14 31 11 36 -8 12 -14 12 -45 -6z"/>
<path d="M3198 897 c-32 -27 -49 -66 -41 -98 6 -23 40 -79 54 -89 24 -17 69
-86 69 -106 0 -47 -62 -58 -109 -18 -26 21 -31 33 -31 69 0 24 -4 47 -10 50
-12 7 -48 -69 -52 -110 -3 -25 1 -31 22 -33 14 -2 32 -10 40 -17 25 -21 88
-37 120 -30 44 10 90 62 90 103 0 30 -41 100 -72 123 -16 11 -58 73 -58 85 0
19 29 44 51 44 35 0 79 -53 79 -94 0 -54 23 -44 44 18 20 58 17 89 -9 80 -8
-4 -30 5 -49 20 -44 33 -100 34 -138 3z"/>
<path d="M3470 843 c0 -9 8 -25 17 -35 18 -20 20 -12 -33 -179 -7 -26 -14 -53
-14 -61 0 -24 -40 -68 -61 -68 -10 0 -19 -6 -19 -14 0 -9 17 -16 47 -21 26 -4
56 -13 67 -21 43 -30 87 -5 46 26 -19 14 -22 24 -18 61 3 24 10 58 16 74 6 17
18 57 28 90 10 33 23 66 30 74 21 23 44 5 44 -34 0 -39 24 -50 33 -14 5 17 12
20 49 17 43 -3 43 -3 40 -38 -2 -19 -9 -60 -17 -90 -8 -30 -17 -77 -20 -103
-6 -44 -10 -50 -41 -63 -44 -19 -43 -32 4 -39 20 -3 51 -10 67 -16 17 -6 39
-12 50 -13 27 -2 32 31 6 39 -26 8 -28 55 -6 138 8 32 15 75 15 96 0 20 6 45
13 55 19 26 67 11 81 -25 14 -39 45 -38 53 1 3 17 11 30 19 30 15 0 57 -52 73
-90 6 -14 22 -43 36 -65 17 -28 24 -55 24 -90 1 -59 -5 -70 -42 -84 -53 -20
-33 -35 63 -45 25 -3 56 -6 70 -8 36 -4 34 32 -3 50 -28 13 -28 16 -22 65 7
48 20 74 71 134 11 12 30 36 44 54 13 17 37 36 52 41 31 11 37 32 12 42 -27
10 -123 7 -130 -6 -4 -6 1 -17 11 -24 20 -15 20 -15 -20 -77 -16 -25 -38 -46
-47 -47 -10 0 -27 21 -44 55 -27 53 -27 55 -10 74 35 39 15 51 -81 51 -50 1
-105 7 -128 15 -22 8 -58 15 -80 15 -22 1 -58 7 -80 15 -22 8 -58 15 -81 15
-22 0 -49 7 -60 15 -10 8 -31 15 -45 15 -14 0 -34 7 -45 15 -25 19 -34 19 -34
-2z"/>
<path d="M4544 710 c-36 -14 -64 -59 -64 -101 0 -32 6 -43 38 -69 20 -18 60
-44 87 -59 28 -15 57 -39 65 -54 13 -23 13 -28 -4 -46 -23 -25 -72 -28 -104
-5 -12 8 -29 31 -37 51 -13 30 -17 34 -30 23 -12 -10 -15 -28 -13 -69 l3 -56
45 -4 c124 -11 139 -9 177 33 32 35 35 42 30 84 -6 51 -23 70 -102 107 -54 26
-95 59 -95 76 0 6 5 19 10 30 22 40 115 15 122 -34 2 -14 11 -23 26 -25 22 -3
23 -2 16 50 -3 29 -10 57 -14 61 -11 12 -131 18 -156 7z"/>
<path d="M5471 138 c-14 -5 -36 -6 -50 -3 -16 3 -43 -3 -70 -16 -27 -13 -56
-19 -75 -16 -17 2 -55 -5 -86 -16 -30 -11 -79 -22 -107 -24 -35 -3 -53 -9 -53
-18 0 -31 86 -34 123 -5 14 11 30 20 36 20 6 0 20 5 30 12 15 9 22 8 36 -5 27
-28 67 -21 105 18 41 40 46 42 53 15 7 -27 50 -26 77 2 32 35 23 52 -19 36z"/>
<path d="M3770 75 c0 -9 9 -15 23 -15 12 0 30 -9 40 -20 26 -31 117 -26 117 6
0 10 -13 14 -43 14 -24 0 -52 7 -63 15 -26 19 -74 20 -74 0z"/>
<path d="M3990 45 c0 -9 9 -15 24 -15 33 0 42 16 13 24 -33 9 -37 8 -37 -9z"/>
<path d="M4936 51 c-18 -7 -18 -8 -2 -14 30 -12 56 -8 56 8 0 16 -23 18 -54 6z"/>
<path d="M4110 10 c-11 -7 2 -10 43 -10 36 0 56 4 52 10 -8 13 -75 13 -95 0z"/>
<path d="M4755 10 c-4 -6 17 -10 55 -10 38 0 59 4 55 10 -8 13 -102 13 -110 0z"/>
</g>
</svg>
